<?xml version="1.0" encoding="UTF-8"?>
<svg id="Layer_2" data-name="Layer 2" xmlns="http://www.w3.org/2000/svg" viewBox="0 0 101.6 87">
  <defs>
    <style>
      .cls-1 {
        fill: #4167b0;
      }

      .cls-2 {
        fill: #665b57;
      }

      .cls-3 {
        fill: #8dd1ff;
      }

      .cls-4 {
        fill: #2376bc;
      }

      .cls-5 {
        fill: #684b3d;
      }

      .cls-6 {
        fill: #a87763;
      }
    </style>
  </defs>
  <g id="Layer_1-2" data-name="Layer 1">
    <path class="cls-2" d="M94.57,39.83c.27-.12.39-.44.27-.71-.04-.09-.11-.17-.19-.23l-21.14-14.49c-.19-.11-.43-.11-.62,0-10.27,5.31-15.52,7.89-17.39,8.8-.38.19.08,1.32.42,1.57l22.24,14.05"/>
    <path class="cls-6" d="M61.51,56.41c10.31-5.05,21.27-10.51,27.15-13.68,1.81-1,4-4.86,2.56-6.08-2.24-1.93,6.85,4.32,7.92,5.86,2.43,3.49,4.15,9.21-.28,14.47-1.71,1.95-3.81,3.51-6.18,4.56-2.61,1.22-7.11,3.36-12.46,5.89"/>
    <path class="cls-5" d="M61.51,56.41c-10.45,5.12-20.24,9.83-23.39,11.33-.71.31-1.35.77-1.88,1.34-1.29,1.06-2.03,2.65-2,4.32-.12,3-2.11,14.25,3.94,13.57,1.13-.13,25.56-11.73,42-19.54l-18.59-11.08"/>
    <path class="cls-4" d="M7.21,47.17c-.27.12-.39.44-.27.71.04.09.11.17.19.23l21.16,14.49c.19.11.43.11.62,0,10.27-5.31,15.52-7.89,17.39-8.8.38-.19-.08-1.32-.42-1.57l-22.24-14.05"/>
    <path class="cls-1" d="M40.29,30.59c-10.31,5.05-21.27,10.51-27.15,13.68-1.81,1-4,4.86-2.56,6.08,2.24,1.93-6-3.35-7.92-5.86-3-3.91-4.15-9.21.28-14.47,1.71-1.95,3.81-3.51,6.18-4.56,2.61-1.22,7.11-3.36,12.45-5.89"/>
    <path class="cls-3" d="M40.29,30.59c10.45-5.12,20.24-9.83,23.39-11.33.71-.31,1.35-.77,1.88-1.34,1.29-1.06,2.03-2.65,2-4.32.12-3,2.12-14.25-3.93-13.57-1.13.13-25.56,11.73-42,19.54l18.6,11.08"/>
  </g>
</svg>