<?xml version="1.0" encoding="UTF-8"?>
<svg id="Layer_2" data-name="Layer 2" xmlns="http://www.w3.org/2000/svg" viewBox="0 0 549.31 602.84">
  <defs>
    <style>
      .cls-1, .cls-2, .cls-3, .cls-4, .cls-5, .cls-6, .cls-7, .cls-8, .cls-9, .cls-10, .cls-11, .cls-12, .cls-13, .cls-14, .cls-15, .cls-16, .cls-17, .cls-18, .cls-19, .cls-20, .cls-21, .cls-22 {
        stroke-miterlimit: 10;
      }

      .cls-1, .cls-2, .cls-3, .cls-4, .cls-5, .cls-6, .cls-7, .cls-8, .cls-9, .cls-10, .cls-11, .cls-12, .cls-13, .cls-15, .cls-16, .cls-17, .cls-18, .cls-19, .cls-20, .cls-21, .cls-22 {
        stroke: #231f20;
      }

      .cls-1, .cls-4, .cls-5, .cls-6 {
        fill: #fff;
      }

      .cls-1, .cls-13 {
        stroke-width: 2px;
      }

      .cls-2, .cls-3 {
        fill: #89642c;
      }

      .cls-2, .cls-6, .cls-7, .cls-10, .cls-16, .cls-18 {
        stroke-width: 5px;
      }

      .cls-3, .cls-5, .cls-11, .cls-17, .cls-20 {
        stroke-width: 4px;
      }

      .cls-4, .cls-9, .cls-19, .cls-21 {
        stroke-width: 3px;
      }

      .cls-7, .cls-8, .cls-9 {
        fill: #231f20;
      }

      .cls-8, .cls-12, .cls-15 {
        stroke-width: 6px;
      }

      .cls-10, .cls-11, .cls-12 {
        fill: #dadada;
      }

      .cls-13, .cls-18, .cls-20, .cls-21 {
        fill: #b31f24;
      }

      .cls-14 {
        fill: #939598;
        stroke: #939598;
      }

      .cls-14, .cls-22 {
        stroke-width: 8px;
      }

      .cls-15, .cls-16, .cls-17, .cls-19, .cls-22 {
        fill: none;
      }
    </style>
  </defs>
  <g id="Layer_1-2" data-name="Layer 1">
    <path class="cls-14" d="M166.96,568.52c-20.46-6.84-30.18-3.22-49.74,0-25.45,1.4-26.49,15.61-.95,24.93,13.2,4.1,30.99,3.25,50.69,3.65,12.31.03,95.58.01,105.82.02,22.89,3.97,10.93-12.06,44.67-4.76,17.99-6.52,8.44,3.79,27.56,3.4,14.89.49,22.33.73,24.4.32,6.9-2.11,17.15-3.89,23.45-1.27,16.2,4.66,73.42,8.06,85.32-6.34,6.09-6.46-1.98-11.14-9.12-12.36-6.28-1.64-12.77-2.15-21.07-1.58-12.04.82-14.53,3.01-20.91,1.27-6.22-1.7-9.98-5.45-11.72-6.97-22.97-20.14-96.06-6-105.5-4.17-13.38,4.15-31.54,1.73-47.52.69-4.62.03-5.02.34-19.68,1.9-11.99,2.09-52.35,3.69-56.68,4.12-4.7,2.06-13.08,1.1-19.01-2.85Z"/>
    <path class="cls-11" d="M200.67,7.35c1.97.94,3.68,2.75,3.84,12.79-.23,16.62.73,30.53-12.12,38.26-9.09,1.97-14.22,1.53-15.21-11.88-.92-10.8-.89-16.43,5.19-29.66,2.57-9.25,12.19-11.69,18.3-9.51Z"/>
    <path class="cls-12" d="M403,115c14.02-1.06,31.58.24,48.83,2.37,22.8,1.97,28.04.28,38.85,4.04,3.42,1.19.95.74,16.99,9.15,3.07,1.61,5.5,2.86,7.01,5.7,2.77,9.31,1.61,12.64-10.22,18.65-7.97,3.55-18.6,4.88-31.88,9.14-29.64,6.36-115.1-.02-130.66-.35-67.19-5.09-57.53,1.05-85.63-16.63-18.56-10.43,15.03-23.58,19.58-25.67,34.13-13.28,78.84-4.38,127.13-6.41Z"/>
    <path class="cls-5" d="M405.38,134.24c11.56.16,39.14-.13,54.18,0,0,0,4.72-.31,21.62,2.02,3.73-.24,9.1,3.97,6.42,8.44-1.84,3.61-7.54,4.07-11.64,4.36-16.1,1.11-24.16,1.67-26.38,1.58-10.05-.37-20.12.26-30.18,0-18.83-.49-40.03-.99-64.87-1.58-1.09-.75-30.82-3.05-35.14-3.74-38.04-6.14,11.4-13.19,37.91-10.97,17.88,1.5,31.31-.26,48.08-.1Z"/>
    <path class="cls-22" d="M296.29,141.57c-12.69-25.64-41.22-55.54-61.46-65.17-9.55-5.82-24.42-8-42.48-10.3-6.8-1.46-11.17-1.8-16.1-11.67-6.3-18.47-2.93-40.64,16.12-49.77,4.96-1.56,8.96-.3,18.65,3.03,18.38,6.3,27.57,8.45,31.49,10.47,36.9,19.02,64.78,40.37,84.48,81.03,6.19,11.7,14.04,27.81,21.86,47.88h-50.81c-1.65-5.26-1.73-5.5-1.73-5.5Z"/>
    <path class="cls-1" d="M206.36,9.84c1.55,16.75,2.83,45.75-16.93,51.87,5.28.34,14.59,1.9,19.87,2.24,15.55-9.62,19.34-30.27,18.26-47.79l-.06.02-21.01-5.27"/>
    <path class="cls-13" d="M229.22,17.01c-.53,17.87-2.88,35.7-18.69,47.1,8.83,2.87,17.92,5.64,26.75,8.5,14.61-12.65,24.32-20.78,24.41-40.04-10.83-5.19-21.65-10.38-32.48-15.56Z"/>
    <path class="cls-1" d="M237.9,72.54c14.86-11.13,24.06-19.45,24.9-37.98l21.45,16.1c.11,14.07-16.85,26.9-29.23,33.62-5.43-4.15-11.7-7.59-17.12-11.74Z"/>
    <path class="cls-1" d="M256.3,85.06c12.84-7.84,26.09-16.92,29.92-33.71,10.37,10.13,16.99,17.49,16.99,17.49h0c-3.58,15.31-21.88,24.42-34.31,28.59-4.25-3.99-8.35-8.38-12.6-12.37Z"/>
    <path class="cls-4" d="M417.26,167.98v1.66c-.09,4.8-.16,11.86,0,20.44.22,11.48.35,17.34,1.42,23.52,1.6,9.22,4.17,15.88,6.42,21.62,3.58,9.15,5.37,13.72,9.5,18.06,4.74,4.98,9.99,7.41,14.5,9.5,7.42,3.44,13.58,4.5,15.21,4.75,3.17.5,9.29,1.42,17.11,0,9.02-1.64,15.2-5.47,17.35-6.89,3.85-2.55,7.33-4.86,9.98-9.27,1.73-2.88,1.85-4.55,4.28-8.32,2.52-3.91,5.06-6.24,5.94-7.13,5.65-5.67,7.21-15.98,9.03-28.04,2.56-16.94,1.6-29.98,1.19-34.46-.07-.8-.08-1.22-.14-1.86-.72-7.75-2.83-13.82-7.8-24.9-4.14-9.24-6.23-13.85-7.29-13.56-1.65.45,3.13,10.87-1.82,18.23-2.43,3.61-8.21,5.41-19.78,9.02-3.89,1.21-8.86,2.73-15.68,4.04-5.31,1.02-9.64,1.42-18.3,2.24-3.89.36-8.73.81-15.21,1.09-5.24.23-9.76.26-13.31.24h-12.59Z"/>
    <path class="cls-13" d="M269.46,97.26c13.55-5.52,27.06-10.23,33.69-26.69,7.26,7.22,12.03,15.58,17.31,23.69-4.67,8.79-4.29,6.83-14.86,13.62-7.87,5.57-11.92,5.27-21.47,6.89-4.73-5.94-9.95-11.57-14.68-17.51Z"/>
    <path class="cls-1" d="M285.26,116.3c12.79-.87,26.08-7.46,36.06-19.37,3.8,7.09,8.26,15.25,12.06,22.34-10.93,10.2-18.73,11.76-34.22,16.99-2.32-3.33-4.63-6.65-13.9-19.96Z"/>
    <path class="cls-13" d="M299.55,137.56c.98-1.77,3.8-1.37,8.04-2.37,5.18-.38,21.74-8.98,25.78-13.78,3.21,7.27,7.41,16.43,10.62,23.69-14.12,0-29.23-1.89-43.35-1.89-.75-1.53-1.97-4.05-1.09-5.65Z"/>
    <path class="cls-4" d="M375.6,109.29c-15.38-18.69-23.53,10.84-7.13,29.94,0,0,1.41,2.19,6.5,9.82h23.29c.69-1.95,1.37-3.89,2.06-5.84,2.66-12.74.66-30.85-3.64-42.87-2.88-7.4-4.05-5.49-6.97-13.07-.98-2.55-1.91-5.51-4.28-6.18-12.3-.36-2.9,22.35-.16,28.99,3.54,9.69,1.59,6.52,3.96,12.67.77,2,1.62,4.01,1.27,6.65-1.93,8.12-6.9,10.27-10.06,2.9-3.42-6.06-.93-16.34-4.83-23.02Z"/>
    <path class="cls-9" d="M519.95,171.05c-15.69-6.97-16.18,14.64-16.86,28.75-.81,10.27,4.3,5.39,8.05,8.25.18,4.3-5.63,5.24-7.54,7.82-2.65,4.83-4.38,19.76,2.77,25.05,10.92,3.57,17.48-16.54,18.92-20.74,6.1-19.91,4.3-41.3-5.34-49.13Z"/>
    <path class="cls-20" d="M529.7,233.04c11.31,14.13-1.18,25.12-17.15,23.55-5.48-7.55,6.57-27.27,16.23-24.77.23.28.55.7.93,1.21Z"/>
    <path class="cls-11" d="M250.18,138.89c-2.54,1.15-1.06,13.74-6.15,20.3-.45.58-2.35,1.98-6.13,4.75-6.95,5.09-8.36,5.87-10.23,7.37-5.14,4.11-7.69,8.81-10.25,13.54-5.42,10.01-6.49,19.08-6.89,22.81-2.01,18.66,4.86,33.69,8.31,40.16,2.42-.63,5.89-1.37,10.11-1.66,4.04-.28,15.91-.94,28.62,5.7,13.57,7.1,20.87,17.72,23.05,22,2.34-.12,4.41-.13,6.42-2.28,2.55-2.72,4.94-3.63,5.97-4.97s5.19-4.45,5.07-2.78c-.2,2.8-12.15,8.28-12.82,11.31-.59,2.67,5.2,4.89,6.53,5.94,15.74,12.38,11.17,13.01,24,21.15,9.38,5.95,17.2,9.02,24,11.64,7.66,2.96,17.33,6.63,30.65,8.55,17.07,2.47,30.41.66,34.69,0,15.78-2.44,27.14-7.13,31.49-9.28,10.59-5.22,21.42-13.37,20.55-15.2-.38-.8-3.67-.15-10.22,1.19-8.78,1.79-11.21,2.96-16.16,3.8-6.27,1.07-11.03.68-16.4.24-5.93-.49-13.05-1.07-21.39-4.51-4.74-1.96-13.24-5.59-19.96-14.26-3.3-4.25-8.13-10.49-6.89-18.3,1.03-6.46,5.62-10.25,6.18-10.69,5.12-4.09,11.04-3.79,13.07-3.56,3.9.44,6.21,2.02,14.73,7.84,4.2,2.87,8.42,5.7,12.59,8.6,12.87,8.95,18.1,6.86,42.77,16.83,2.81,1.13,8.79,4.22,15.92,3.56.72-.07,3.3.04,6.89-.48,3.3-.47,12.06-1.73,20.44-7.37,7.16-4.82,17.48-15.14,14.73-21.86-.91-2.22-3.02-3.52-4.75-4.28-2.99,2.77-7.55,6.42-13.78,9.5-5.91,2.93-10.88,4.13-12.59,4.51-12.46,2.79-22.7.3-25.43-.43-4.61-1.23-15.68-4.34-24.24-14.3-4.48-5.22-6.23-9.93-9.5-18.77-1.47-3.97-4.91-13.89-7.13-29.71-2.52-17.92-.38-35.61-.38-35.61,0,0-2-.26-2-.26,0-.38-45.64-1.64-53.47-1.9-12.54-.41-7.48-.84-33.27-2.38-21.71-1.29-29.97-1.27-43.72-4.28-18.26-3.99-23.71-8.41-25.9-10.39-4.54-4.1-5.17-12.71-7.16-11.81Z"/>
    <path class="cls-9" d="M256.3,196.97c-1.25.27-6.31,1.36-9.65,5.94-2.08,2.86-2.46,5.65-2.85,8.55-.91,6.72.88,12.02,1.66,14.26,1.99,5.68,4.98,9.33,7.13,11.88,2.11,2.51,4.47,5.28,8.53,7.6,3.27,1.87,6.03,2.54,8.34,3.09,4.03.95,7.54,1.77,9.26,0,0,0,.3-.3,1.9-4.12l-11.16-.87c-2.46-3.09-4.92-6.18-7.38-9.27-.86-8.35-2.56-14.29-4.03-18.3-.29-.78-1.82-4.91-1.75-10.23.05-4.09,1.01-5.72,1.99-6.64,1.64-1.54,3.84-1.56,3.8-1.9-.05-.38-2.84-.63-5.79,0Z"/>
    <path class="cls-8" d="M387.32,254.95c-17.32-6.34-25.08,15-15.44,25.5,4.03,7.09,25.58,17.59,25.43,17.04,13.82,7.07,37.07,5.16,54.73.66,9.72-3.26,21.32-5.4.16-10.64-8.13-2.64-5.81-2.85-22.1-9.41-12.66-4.47-22.68-9.67-28.51-14.11-5.32-3.8-8.31-6.74-14.26-9.03Z"/>
    <path class="cls-3" d="M387.57,507.81c-7.94-6.31-17.66-12.41-25.65-18.32-5.84-9.82-12.14-27.96-11.2-37.32,2.53-5.05,7.33-11.34,6.65-17.82.71-16.28,22.64-31.79,35.17-31.13,3.07-.29,2.23.17,12.12,0,3.77-.07,5.29-.16,7.37.71.9.38,1.31.69,6.42,4.28,11.41,9.42,23.95-3.26,24.71,20.67,5.57,44.09,6.44,78.4-19.25,118.34-12.51,18.37-32.94,43.12-52.75,45.63-3.82-1.34-9.14-2.64-12.83,0-7.78,2.6-24.94-.47-30.65-5.7-5.57-5.24-6.36-12.7-6.42-13.31-.56-6.08,1.95-10.57,0-11.88-1.61-1.09-3.76,1.68-6.65.71-4.66-2.47-7.9-14.43-6.18-19.48,1.13-2.91,2.81-2.99,5.47-6.89,2.64-3.89,1.78-7.42,3.56-7.84,1.45-.46,6.96,4.45,7.84,4.99,9.58,3.27,21.5,2.13,28.75-8.79,5.14-9.76-.53-17.46-1.19-24.48.08-2.55,4.11-9.42,9.85-9.99,0,0,24.86,17.63,24.86,17.63Z"/>
    <path class="cls-21" d="M377.66,281.8c.2-3.1,24.87-.08,27.88,1.43,7.24,1.77,6.82,3.88,10.45,8.4,1.6,1.51,3.19.93,4.91-.16.81-.86,8.83,7.35,7.45,7.6-7.37,6.08-21.27-.19-29.94-2.53-9.67-2.58-19.5-7.22-20.75-14.73Z"/>
    <path class="cls-6" d="M515.93,267.07c4.32-.63,8.09,13.37,7.48,11.97-5.73-13.21,2.03-.95.3,4.71-.58,1.9.66,4.7-1.1,5.66-2.19,1.19,2.81-.95,6.16.48,5.83,2.48,7.49,11.11,7.77,12.61,1.24,6.46-1.49,8.08.71,13.06.9,2.02,1.52,2.15,4.51,7.13,1.33,2.21,2.94,5.06,3.56,6.42,3.32,7.16.89,19.21-5.94,26.14-4.24,4.3-6.77,3.18-11.88,8.79-4.06,4.46-3.29,6.07-6.42,9.74-5.49,6.46-15.72,7.4-24.48,9.27-9.14,1.95-8.18-.83-14.73-3.26-5.08-1.88-7.64.06-13.78,0-1.89-.02-7.73-.29-13.54-3.87-3.23-1.99-5.29-4.6-9.27-9.74-6.18-7.98-9.27-11.97-9.5-16.4-.16-2.9.49-8.45,2.61-13.78,1.44-3.61-2.31-17.08-.33-20.55,1.71-3-14.77,16.2-4.28,6.61,1.93-1.77-2.19-.67,9.55-8.63,10.68-7.25-1.62.3,23.89-20.01,5.52-4.4,11.06-.67,20.98-4.46,7.18-2.75,12.37-6.99,14.11-8.48,8.8-7.55,9.72-12.81,13.6-13.38Z"/>
    <path class="cls-17" d="M462.41,323.69c4.44,2.72,7.61,5.45,9.74,7.53,3.09,3.01,4.71,5.33,7.84,5.7,2.19.26,4.02-.56,5.94-1.43,1.22-.55,4.21-1.94,6.65-5.16.58-.76,3.32-4.51,3.33-9.81,0-3.83-1.54-6.67-4.62-12.36-1.51-2.78-2.99-4.85-3.84-5.98,0,0-.27-.36-.56-.73-2.61-3.3-7.76-7.91-9.5-9.45"/>
    <path class="cls-17" d="M494.25,308.42c2.68-1.36,5.36-3.28,8.46-4.99,7.37-4.08,14.49-6.34,18.87-14.02"/>
    <path class="cls-17" d="M483.8,336.98c.53,1.14,2.69,5.28,4.42,6.13,1.68.81,3.08.45,6.03.39,4.24-.09,4.58.59,7.02.45,2.47-.14,4.44-.96,9.9-4.4,5.1-3.21,7.64-4.81,11.44-7.84,3.62-2.89,9.69-8.13,14.65-13.54"/>
    <path class="cls-17" d="M497.34,345.01c-.69,3.64-1.78,8.67-1.43,10.46.31,1.58.63,3.08,1.66,4.75,1.77,2.85,4.37,4.12,5.7,4.75,2.22,1.05,4.01,1.28,7.89,1.66,3.27.32,7.11.65,11.44.95"/>
    <path class="cls-17" d="M438.63,326.36c2.71,6.88,8.43,12.5,10.71,15.8,3.89,5.61,4.36,4.57,13.07,15.21,4.38,5.35,6.48,8.32,11.02,12.36,2.8,2.49,8.06,8.89,9.78,10.05"/>
    <path class="cls-7" d="M214.69,247.32c-14.25,2.47-30.65,11.57-38.81,23.29-4.28,11.74-2.58,7.21-12.67,11.56-9.56,5.19-4.35,11.72-10.14,15.68,0,0-1.69.97-9.82,6.97-11.56,8.73-12.74,25.61-13.78,37.23.08,2.89.13,4.67.95,6.97,1.4,3.92,3.37,4.62,3.33,7.13-2.63,8.27-9,7.14-5.07,18.93,4.05,15.68,22.44,29.2,39.29,23.84,8.1-3.46,11.31-12.88,13.31-16.64-7.49,26.12,56.66,19.58,41.03-13.94,4.72,9.52,9.3,3.15,12.67-5.54,3.32-9.17.69-14.81,4.75-17.74,1.91-1.38,2.38-.05,6.97-2.06,2.7-.81,8.46-5.21,12.04-6.81,10.22-2.25,30.59,11.77,30.26,11.25,14.33,9.59,33.56,21.15,38.18,27.64.25,1.39,9.66,14.53,14.9,14.84,2.84.86,5.49-10.72,13.62-20.62,5.38.78,5.31,5.9,16,7.6,21.76,6.29,53.24,1.37,77.59-2.79.68-2.24-7.05-4.64-11.22-11.63-3.22-6.13-7.76-11.14-5.07-14.14,4.92-1.42-4.17.43-6.02.99-1.14.34-1.91.69-15.21-.16,0,0-7.54.37-13.31,0-2.72-.18-3.2-.4-16.48-3.33-8.98-1.98-14.19-3.08-14.18-4.59,0-.68,1.05-.81,2.62-2.53,1.86-2.05,1.86-3.49,2.69-4.59,2.2-2.93,7.88-.49,16.32-.48,5.69,0,4.17-1.1,14.42-2.06,9.8-.92,11.25.09,15.52-1.74,3.74-1.6,4.55-3.2,9.24-4.59,1.39-.41,2.62-.66,3.09-1.68.91-1.96,7.14-10.29-3.77-5.93-15.03,9.57-40.84,8.31-51.48,7.61-26.75-2.65-42.41-9.27-62.26-19.33-6.79-4.55-5.63-5.92-16.32-15.08-7.17-6.15-8.04-5.83-16-12.87-6.8-5.22-13.47-13.92-18.53-19.26-10.07-7.56-13.58-7.56-23.76-9.49-7.67-.55-16.23-2.72-24.87-1.91Z"/>
    <path class="cls-6" d="M228.37,367.87c-1.89,6.38-11.62,23.1-18.2,24.51-9.36,5.11-19.97,4.71-28.79-6.02-9.11-.35-11.26,12.9-22.02,10.77-11.9-1.24-20.96-10.21-26.77-18.69-4.23-5.81-2.13-16.66,1.55-22.26l5.35,3.8c2.91-.44-2.17-4.05-1.03-3.41,1.23,1,7.35,4.83,8.71,5.54,1.46.7,5.05,9.75,6.95,5,.39-.91-2.15-.59-2.36-1.53-.49-2.19-4.3-2.67-4.17-3.89.11-.98,3.56-1.22,2.22-2.64-.1-.11,2.08-2.22,5.9-3.76-2.21-1.83-6.82,2.55-8.4,2.38-1.52.04-2.81-1.03-5.39-3.17-4.3-3.86-4.59-3.9-5.23-12.36-2.4-21.54,9.62-34.18,28.04-41.5,6.02-2.04,7.94-.02,19.64,0,3.69.24,21.21-1.85,26.77.82,1.01.43,8.94,4.73,10.93,5.99,2.07,2.04,1.58,4,3.01,7.04,1.71,5.13,12.32,9.71,13.78,13.4,2.22,6.81,1.04,11.39-1.58,17.27-2.83,10.1-1.24,12.71-9.5,23.45"/>
    <path class="cls-19" d="M175.95,313.41c.59,1.7,1.22,4.14,1.31,7.13.11,3.69-.66,6.67-1.31,8.55"/>
    <path class="cls-19" d="M186.17,312.34c.09,2.78.7,4.81,1.26,6.18.44,1.05.8,1.61,1.11,2.73.56,2.02.38,3.85.12,5.11"/>
    <path class="cls-19" d="M196.87,312.34c.7,1.38,1.71,3.81,1.9,7.01.18,2.9-.39,5.24-.85,6.65"/>
    <path class="cls-6" d="M165.5,297.16c-.26-2.38,2.7-5.59,3.27-6.2,2.02-2.19,4.23-3.15,5.56-3.71,2.93-1.24,5.35-1.4,9.59-1.63,3.26-.18,2.96.09,8.5-.04,4.29-.1,4.72-.27,6.76-.1,3.13.27,5.58.97,7.41,1.66,4.09,1.56,5.37,3.24,5.77,3.82.19.28.56.84.87,1.61.19.47,1.36,3.49,0,6.22,0,0-.25,1.16-1.2,1.63-4.14,2.05-45.61,5.19-46.52-3.27Z"/>
    <path class="cls-6" d="M225.86,308.61c2.13,2.31,1.35,4.32,2.72,6.64,1.35,2.3,2.87,1.62,5.88,4.1,3.65,2.99,5.13,7.01,5.55,8.21,1.86,5.24.45,8.96,2.73,10.13,1.3.67,2.86.03,2.94,0,2.17-.92,1.68-3.46,4.14-5.12.78-.52,1.75-.75,3.7-1.2,3.05-.7,3.69-.26,4.9-.98,1.71-1.02,2.26-3.01,2.64-4.39.66-2.37.19-3.52,0-7.59-.23-4.87.37-4.55,0-7.52-.37-2.91-1.17-4.96-2.42-8.15-1.56-3.98-2.34-5.96-3.92-8.08-1.41-1.89-3.59-3.59-7.95-6.97-2.96-2.3-4.43-3.44-5.99-4.36-2.47-1.45-5.83-3.37-10.57-3.96-2.55-.31-4.42-.11-6.65.14-3.52.39-5.29.62-6.21,1.96-1.12,1.64-.38,3.94,0,5.12,1.02,3.18,2.77,3.64,4.03,5.98,2.4,4.46-3.1,9.21-.87,11.78.56.64,1.04.57,3.38,2.51.93.77,1.49,1.23,1.96,1.75Z"/>
    <path class="cls-8" d="M515.93,138.82c2.75,5.66,5.95,13.65,8.03,23.71,1.59,7.7,2.11,14.57,2.18,20.08"/>
    <path class="cls-19" d="M418.45,408.22c3.45,7.18,7.23,18.76,8.55,23.52,3.09,11.11,3.67,20.06,4.04,26.14.32,5.31.62,10.24,0,16.87-.32,3.46-.81,6.48-5.24,23.78-2.98,11.64-4.5,17.52-5.69,20.41-2.69,6.5-5.46,10.79-10.93,19.25-4.64,7.18-8.52,12.3-12.36,17.35-7.24,9.53-10.86,14.29-15.68,19.25-4.87,5.01-12.27,11.66-22.81,18.06"/>
    <path class="cls-19" d="M322.69,561.72c3.04-.36,10-1.99,14.73-3.33,3.89-1.1,9.11-2.62,15.21-6.18,1.13-.66,5.81-3.45,10.93-8.32,2.83-2.69,5.08-4.83,7.13-8.32.52-.88,1.64-2.91,3.8-10.93,3.82-14.19,2.86-17.41,1.66-19.49-.53-.92-1.3-1.58-2.61-3.09-2.38-2.73-3.33-8.54-12.32-8.59-1.75,0-4.39,4.51-4.55,5.04-.54,1.83-4.82,3.18-.95,3.3"/>
    <path class="cls-18" d="M236.37,367.58c9.65-8.4-2.59-18.43,7.49-20.99,8.57-2.05,8.99-5.75,15.73-6.65,17.54-1.81,56.92,28.85,64,35.25,12.35,13.71,6.32,11.32,18.35,16.91,5.4.53,4.79,30.1,4.36,32.75-.33,14.59-8.26,14.74-8.83,22.81.44,2.26,2.58,2.5,4.47,5.07,4.69,7.7.56,9.49-.32,17.43,3.44,9.84-6.04,6.27-10.85-.95-1.59-2.44-2.56-5.19-4.79-7.29-12.73.14-22.59,8.18-30.32,18.38-5.64,7.86-5.55,11.78-8.07,12.04-3.36.35-7.97-6.1-9.24-12.67-1.76-9.08.13-14.46-3.33-18.37-1.27-1.44.99-1.67-3.29-2.86-9.52-2.63-10.54-6.36-22.03-10.77-11.32-5.38-15.1-1.92-26.49,1.59-7.66,1.76-24.68,3.98-20.53-13.31,2.53-28.69-6.1-32.82,11.3-38.77,8.9-4.65,13.71-20.16,22.41-29.59Z"/>
    <path class="cls-15" d="M215.16,397.76c1.87,5.62,4.81,11,5.66,14.1,1.58,5.72,1.88,7.54,3.49,10.46,1.91,3.48,3.59,4.71,6.97,8.55,2.26,2.57,5.41,6.45,8.74,11.72,11.66,4.65,22.82,12.58,34.48,17.23"/>
    <path class="cls-19" d="M342.06,467.04c-.41-.72-4.81-4.39-8.86-5.44-2.14-.55-6.42-1.12-7.43-.87"/>
    <path class="cls-10" d="M291.47,491.36c1.31,1.69.34,5.29,8.18,9.18,2.57,1.27,3.32,4,4.94,4.59,3.49,7.5,8.75,12.34,12.23,19.84,1.73,1.47,4.36,3.49,7.92,5.39,1.61.85,2.41,1.28,3.49,1.58,3.99,1.13,7.56-.24,11.72-1.9,4.6-1.83,6.9-2.75,8.87-5.07,3.05-3.59,3.38-7.82,3.49-9.52.27-4.23-1.13-5.41-2.36-12.02-1.27-6.8-.08-7.15-1.12-11.08-.91-3.41-2.61-6.16-10.14-13.95-12.54-12.98-13.35-13.9-14.89-14.23-6.37-1.37-12.09,3.08-18.69,8.21-11.55,8.97-16.51,15.26-13.63,18.98Z"/>
    <path class="cls-2" d="M127.74,321.25c-.88-.75-3.01-1.59-16.54,5.11-11.33,5.61-17,8.42-23.13,13.42-15.54,12.68-21.23,27.78-32.95,35.41-1.74,1.13-5.86,3.76-11.72,4.59-3.33.47-5.04.05-7.6,0-10.07-.21-18.35,5.47-21.23,7.69-2.84,2.19-9.25,7.14-11.41,15.67-1.09,4.29-.65,7.74,0,12.93.71,5.64,1.35,10.72,4.75,15.76,3.29,4.86,7.49,7.22,11.09,9.19,6.67,3.64,12.38,4.48,21.23,5.7,6.09.84,13.41,1.85,23.13,1.27,8.47-.51,15.36-2.34,29.15-6.02,16.54-4.41,24.8-6.62,29.15-9.5,5.72-3.8,11.32-9.22,15.21-7.29,1.8.89,1.72,2.61,3.17,4.44,6.09,7.71,32.85,1.67,28.83-2.06-2.46-2.28-7.81-4.31-10.77-13.15-1.3-3.87.83-7.55-1.58-9.82-1.47-1.38-3.41-1.34-4.75-1.44-7.31-.54-13-6.2-18.06-11.23-3.93-3.91-8.19-8.7-9.78-16.59-.7-3.46-2.52-9.31.59-13.19,2.12-2.64,5.44-3.47,5.46-5.82,0-1.62-1.56-2.75-2.22-3.37-6.7-6.19,4.95-27.45,0-31.68Z"/>
    <path class="cls-16" d="M19,441.01c-1.19-1.9-5.25-16.31-4.12-24.95,1.11-8.47,6.2-13.63,8.24-15.63,5.93-5.83,12.65-7.39,16.48-8.22,7.09-1.55,13.06-.73,16.48,0,9.09-14.49,24.94-34.78,50.69-49.74,6.57-3.81,12.97-6.81,19.01-9.19"/>
    <path class="cls-16" d="M165.49,427.54c-.47.36-10.1,7.6-19.43,3.64-10.74-4.55-10.79-19.58-10.77-21.54.05-4.83,1.55-9.48,2.65-11.88"/>
    <path class="cls-19" d="M167.26,429.82c6.86,6.64,13.14,9.5,17.73,10.87,3.94,1.18,7.31,1.46,11.44,4.12,1.83,1.18,19.07,7.93,24.08,5.94"/>
    <path class="cls-19" d="M240.02,163.64c2.04-.34,5.4-.64,9.36.32,5.36,1.29,13.65,7.6,15.27,9.12"/>
    <path class="cls-10" d="M158.6,403.13c3.18.76,5.62.33,6.89,0,.71-.18,4.62-1.26,7.45-4.58,1.12-1.31,1.84-2.71,3.67-4.09,0,0,.07-.06,2.17-1.59.86,1.18,2.23,2.79,4.25,4.3,1.6,1.19,3.72,2.78,6.65,3.27,4.28.71,6.46-1.54,9.12,0,1.26.73,1.93,1.91,2.28,2.69,3.09,29.99,1.53,38.3-1.06,38.94-.93.23-1.38-.68-4.78-2.21-6.02-2.71-7.64-1.2-13.01-3.45-5.11-2.14-8.54-5.56-9.56-6.58-1.01-1.02-1.93-2.11-3.79-4.3-1.82-2.15-3.21-3.8-4.71-5.84-3.18-4.35-4.87-6.66-5.58-10.09-.54-2.63-.3-4.93,0-6.46Z"/>
  </g>
</svg>