<?xml version="1.0" encoding="utf-8"?>
<!-- Generator: Adobe Illustrator 25.2.0, SVG Export Plug-In . SVG Version: 6.00 Build 0)  -->
<svg version="1.1" id="Layer_1" xmlns="http://www.w3.org/2000/svg" xmlns:xlink="http://www.w3.org/1999/xlink" x="0px" y="0px"
	 viewBox="0 0 66 82.5" style="enable-background:new 0 0 66 82.5;" xml:space="preserve">
<style type="text/css">
	.st0{fill:#4167B0;}
</style>
<g>
	<path class="st0" d="M4.6,33C4.6,17.3,17.3,4.6,33,4.6c6.3,0,12.4,2.1,17.3,5.9l-7.3,1.2c-0.4,0.1-0.7,0.5-0.6,0.9
		c0.1,0.4,0.5,0.7,0.9,0.6l8.8-1.4c0.5,0,0.8-0.4,0.8-0.9l-1.4-8.9c-0.1-0.4-0.4-0.7-0.9-0.6c-0.4,0.1-0.7,0.5-0.6,0.9l1.1,7
		C45.9,5.2,39.6,3.1,33,3.1C16.5,3.1,3.1,16.5,3.1,33c0,7.2,2.6,14.2,7.3,19.6c0.3,0.3,0.7,0.3,1.1,0.1c0.3-0.3,0.3-0.7,0.1-1.1
		C7,46.5,4.6,39.9,4.6,33z"/>
	<path class="st0" d="M55.6,13.4c-0.3-0.3-0.7-0.3-1.1-0.1c-0.3,0.3-0.3,0.7-0.1,1.1c4.5,5.2,7,11.8,7,18.6
		c0,15.7-12.8,28.4-28.4,28.4c-6.3,0-12.4-2.1-17.3-5.9l7.3-1.2c0.4-0.1,0.7-0.5,0.6-0.9c-0.1-0.4-0.4-0.7-0.9-0.6l-8.8,1.4
		c-0.4,0-0.8,0.4-0.7,0.8c0,0,0,0,0,0l1.4,8.9c0.1,0.4,0.5,0.7,0.9,0.6c0.4-0.1,0.7-0.5,0.6-0.9l-1.1-7C20.1,60.8,26.5,63,33,63
		C49.5,63,62.9,49.5,62.9,33C62.9,25.8,60.3,18.8,55.6,13.4z"/>
	<path class="st0" d="M18.8,39.9l-2.7,3.6c-0.2,0.3-0.2,0.7,0.1,1l3.3,3.3c0.3,0.3,0.7,0.3,1,0.1l3.8-2.9h1.8
		c-0.6-1.5-1.5-2.9-2.7-4.2c-3.8-3.9-4.9-9.5-2.7-14.6c2.1-5,6.9-8.2,12.3-8.2c5.5,0,10.2,3.1,12.3,8.2c2.1,5.1,1.1,10.7-2.8,14.6
		c-1.2,1.2-2.1,2.6-2.7,4.1h1.8l3.8,2.9C45.7,48,45.8,48,46,48c0.2,0,0.4-0.1,0.5-0.2l3.3-3.3c0.3-0.3,0.3-0.7,0.1-1l-2.7-3.6
		c1-1.6,1.8-3.4,2.2-5.2l4.4-0.6c0.4,0,0.6-0.4,0.6-0.7v-4.7c0-0.4-0.3-0.7-0.6-0.7l-4.4-0.6c-0.4-1.9-1.2-3.6-2.2-5.2l2.7-3.6
		c0.2-0.3,0.2-0.7-0.1-1l-3.3-3.3c-0.3-0.3-0.7-0.3-1-0.1l-3.6,2.7c-1.6-1-3.4-1.7-5.2-2.2l-0.6-4.5c-0.1-0.4-0.4-0.6-0.7-0.6h-4.7
		c-0.4,0-0.7,0.3-0.8,0.6l-0.6,4.5c-1.8,0.4-3.6,1.1-5.2,2.1L20.5,14c-0.3-0.2-0.7-0.2-1,0.1l-3.3,3.3c-0.3,0.3-0.3,0.7-0.1,1
		l2.7,3.6c-1,1.6-1.7,3.3-2.2,5.2l-4.4,0.6c-0.4,0-0.6,0.4-0.6,0.7v4.7c0,0.4,0.3,0.7,0.6,0.7l4.4,0.6C17,36.5,17.8,38.3,18.8,39.9z
		"/>
	<path class="st0" d="M28.3,47.8c0.1,0.7,0.1,1.2,0,1.7h9.4c0-0.4,0-1,0-1.7H28.3z"/>
	<path class="st0" d="M41.5,39.8c7.3-7.5,2.1-20.2-8.5-20.2c-10.5,0-15.8,12.7-8.5,20.2c2.2,2.3,3.2,4.7,3.6,6.6h9.9
		C38.3,44.4,39.3,42,41.5,39.8z M37.5,32.1l-4.4,9.7c-0.1,0.2-0.5,0.2-0.5-0.1v-6.3c0-0.1-0.1-0.2-0.2-0.2h-2.1
		c-0.1,0-0.2-0.1-0.2-0.3l0.8-10c0-0.1,0.1-0.2,0.2-0.2h4.6c0.2,0,0.3,0.1,0.2,0.3l-1.3,6.6c0,0.2,0.1,0.3,0.2,0.3h2.3
		C37.5,31.8,37.6,32,37.5,32.1z"/>
	<path class="st0" d="M33,55c2.4,0,4.3-1.7,4.7-4h-9.3C28.7,53.3,30.7,55,33,55z"/>
</g>
</svg>
