<?xml version="1.0" encoding="utf-8"?>
<!-- Generator: Adobe Illustrator 25.2.3, SVG Export Plug-In . SVG Version: 6.00 Build 0)  -->
<svg version="1.1" id="Layer_1" xmlns="http://www.w3.org/2000/svg" xmlns:xlink="http://www.w3.org/1999/xlink" x="0px" y="0px"
	 viewBox="0 0 41 40.6" style="enable-background:new 0 0 41 40.6;" xml:space="preserve">
<path d="M20.5,4.5c-10.1,0-18.2,7.2-18.2,16c0,3.5,1.3,6.9,3.7,9.6l0.2,0.3l-0.2,0.3C5.5,32,4.7,33,3.6,33.7l0,0
	c-0.3,0.2-0.4,0.5-0.4,0.9c0.1,0.4,0.3,0.6,0.7,0.6c0.6,0.1,1.1,0.1,1.7,0.1c1.8,0,3.5-0.4,4.9-1.1l0.3-0.1l0.3,0.1
	c2.8,1.5,6.1,2.3,9.4,2.3c10.1,0,18.2-7.2,18.2-16S30.6,4.5,20.5,4.5L20.5,4.5z M20.5,5.2C30.1,5.2,38,12,38,20.5
	c0,8.1-7.2,14.6-16.2,15.2l0.1,0.1h-1.4c-3.4,0-6.7-0.9-9.5-2.5h0l0,0c-0.1,0-0.1,0-0.2,0c-0.1,0-0.1,0-0.2,0.1l0,0
	c-1.6,0.9-3.4,1.4-5.4,1.3l-1.4-0.1l1.1-1c0.9-0.8,1.6-1.9,2.1-3.1c0-0.1,0-0.3-0.1-0.4C4.4,27.4,3,24,3,20.5
	C3,12,10.9,5.2,20.5,5.2L20.5,5.2z M15.3,19.9c-0.4,0-0.6,0.3-0.6,0.6s0.3,0.6,0.6,0.6s0.6-0.3,0.6-0.6S15.7,19.9,15.3,19.9z
	 M20.5,19.9c-0.4,0-0.6,0.3-0.6,0.6s0.3,0.6,0.6,0.6c0.3,0,0.6-0.3,0.6-0.6S20.8,19.9,20.5,19.9z M25.7,19.9c-0.4,0-0.6,0.3-0.6,0.6
	s0.3,0.6,0.6,0.6c0.3,0,0.6-0.3,0.6-0.6S26,19.9,25.7,19.9z"/>
</svg>
