<?xml version="1.0" encoding="utf-8"?>
<!-- Generator: Adobe Illustrator 25.2.0, SVG Export Plug-In . SVG Version: 6.00 Build 0)  -->
<svg version="1.1" id="Layer_1" xmlns="http://www.w3.org/2000/svg" xmlns:xlink="http://www.w3.org/1999/xlink" x="0px" y="0px"
	 viewBox="0 0 100 125" style="enable-background:new 0 0 100 125;" xml:space="preserve">
<style type="text/css">
	.st0{fill:#FF0000;}
</style>
<path d="M1042.1,37.2c-17.4,0-31.6,14.2-31.6,31.6v1.9l-9,16.8c-0.2,0.5-0.2,1,0,1.5c0.3,0.5,0.8,0.7,1.3,0.7h7.7v11.4
	c0,5.1,4.2,9.3,9.3,9.3h13.2v6.6c0,0.8,0.7,1.5,1.5,1.5s1.5-0.7,1.5-1.5V109c0-0.8-0.7-1.5-1.5-1.5h-14.7c-3.5,0-6.3-2.8-6.3-6.3
	V88.3c0-0.8-0.7-1.5-1.5-1.5h-6.7l8-15c0.1-0.2,0.2-0.5,0.2-0.7v-2.3c0-4.3,1-8.4,2.7-12.1l54,17.4c-1,5.6-3.7,10.8-7.9,14.9
	c-0.4,0.3-0.6,0.7-0.6,1.2V117c0,0.8,0.7,1.5,1.5,1.5s1.5-0.7,1.5-1.5V90.8c5.8-5.9,9-13.7,9-22
	C1073.7,51.4,1059.5,37.2,1042.1,37.2z M1042.1,40.2c3.5,0,6.9,0.6,10,1.8l-14.4,9l-4.4-9.5C1036.1,40.7,1039,40.2,1042.1,40.2z
	 M1017.6,54c3-5,7.5-9,12.9-11.3l4.6,10l-7.3,4.6L1017.6,54z M1031.6,58.5l23.8-15c2.6,1.4,5,3.2,7,5.2l-20.7,13L1031.6,58.5z
	 M1045.4,63l9.1-5.7c0,0,0,0,0,0.1l4.6,10L1045.4,63z M1062.9,68.6c0-0.1-0.1-0.2-0.1-0.3l-5.6-12.2c-0.1-0.1-0.2-0.3-0.3-0.4
	l7.1-4.4c0.1-0.1,0.3-0.2,0.3-0.3c3.9,4.9,6.3,11.1,6.3,17.8c0,0.8,0,1.5-0.1,2.3L1062.9,68.6z M1018.8,72.5c0,1.9,1.6,3.5,3.5,3.5
	s3.5-1.6,3.5-3.5s-1.6-3.5-3.5-3.5S1018.8,70.6,1018.8,72.5z"/>
<path d="M1042.1,166.1c-17.4,0-31.6,14.2-31.6,31.6v1.9l-9,16.8c-0.2,0.5-0.2,1,0,1.5c0.3,0.5,0.8,0.7,1.3,0.7h7.7V230
	c0,5.1,4.2,9.3,9.3,9.3h13.2v6.6c0,0.4,0.2,0.8,0.4,1.1c0.3,0.3,0.7,0.4,1.1,0.4c0,0,0,0,0,0l28.7-0.1c0.8,0,1.5-0.7,1.5-1.5v-26.1
	c5.8-5.9,9-13.7,9-22C1073.7,180.2,1059.5,166.1,1042.1,166.1z M1042.1,170.1c2.9,0,5.7,0.5,8.4,1.3l-12.5,7.8l-3.7-8
	C1036.7,170.5,1039.4,170.1,1042.1,170.1z M1022.3,204.9c-1.9,0-3.5-1.6-3.5-3.5c0-1.9,1.6-3.5,3.5-3.5s3.5,1.6,3.5,3.5
	C1025.8,203.3,1024.2,204.9,1022.3,204.9z M1030,184.2l-9.9-3.2c2.8-3.6,6.3-6.5,10.4-8.4l4,8.7L1030,184.2z M1034.9,185.8l20-12.5
	c2.3,1.2,4.4,2.7,6.3,4.5l-17.3,10.9L1034.9,185.8z M1048.8,190.3l5.4-3.4l2.8,6.1L1048.8,190.3z M1062.2,194.6l-4.5-9.9l-0.1,0
	l6.3-4c3.5,4.5,5.6,10.1,5.7,16.2L1062.2,194.6z"/>
<g>
	<g>
		<path d="M1061.7,376.3v-26.9c0-0.5,0.2-1,0.6-1.2c5.4-5.4,8.3-12.5,8.3-20.2c0-15.8-12.8-28.6-28.6-28.6s-28.6,12.8-28.6,28.6v2.3
			c0,0.2-0.1,0.5-0.2,0.7l-8,14.9h6.7c0.8,0,1.5,0.7,1.5,1.5v12.9c0,3.5,2.8,6.3,6.3,6.3h14.7c0.8,0,1.5,0.7,1.5,1.5v8.1
			c0,0.8-0.7,1.5-1.5,1.5h28.7C1062.3,377.8,1061.7,377.1,1061.7,376.3z"/>
	</g>
	<path d="M1054.5,316.6l4.6,10l-13.7-4.4L1054.5,316.6C1054.5,316.5,1054.5,316.6,1054.5,316.6z"/>
	<path d="M1030.5,301.9l4.6,10l-7.3,4.6l-10.2-3.3C1020.6,308.2,1025.2,304.3,1030.5,301.9z"/>
	<path d="M1052.1,301.3l-14.4,9l-4.4-9.5c2.8-0.9,5.7-1.4,8.7-1.4C1045.6,299.4,1049,300.1,1052.1,301.3z"/>
	<path d="M1062.4,308l-20.7,13l-10.2-3.3l23.8-15C1058,304.1,1060.4,305.9,1062.4,308z"/>
	<path d="M1070.7,328c0,0.8,0,1.5-0.1,2.3l-7.6-2.5c0-0.1-0.1-0.2-0.1-0.3l-5.6-12.2c-0.1-0.1-0.2-0.3-0.2-0.4l7.1-4.4
		c0.1-0.1,0.2-0.2,0.3-0.3C1068.3,315.1,1070.7,321.3,1070.7,328z"/>
	<path d="M1022.3,328.2c1.9,0,3.5,1.6,3.5,3.5c0,1.9-1.6,3.5-3.5,3.5s-3.5-1.6-3.5-3.5C1018.7,329.8,1020.3,328.2,1022.3,328.2z"/>
	<g>
		<path d="M1036,368.2v-4.7c0-0.8-0.7-1.5-1.5-1.5h-14.7c-3.5,0-6.3-2.8-6.3-6.3v4.7c0,3.5,2.8,6.3,6.3,6.3h14.7
			C1035.3,366.7,1036,367.4,1036,368.2z"/>
	</g>
	<path d="M1061.7,376.3v-26.9c0-0.5,0.2-1,0.6-1.2c4.6-4.6,7.4-10.5,8.2-16.9c-1.9-0.3-3.7-0.9-5.5-1.5c-0.1,0-0.2-0.1-0.3-0.2
		c-0.4,7-3.3,13.6-8.3,18.6c-0.4,0.3-0.6,0.7-0.6,1.2v26.9c0,0.8,0.7,1.5,1.5,1.5h6C1062.3,377.8,1061.7,377.1,1061.7,376.3z"/>
	<g>
		<polygon points="1024.7,315.5 1027.8,316.5 1035.1,311.9 1034.1,309.6 		"/>
		<path d="M1048.7,300.2L1048.7,300.2C1048.6,300.2,1048.6,300.2,1048.7,300.2c-0.2,0-0.4-0.1-0.5-0.1c-0.3-0.1-0.6-0.1-0.9-0.2
			c-0.2,0-0.3-0.1-0.5-0.1c-0.3,0-0.5-0.1-0.8-0.1c-0.2,0-0.4-0.1-0.6-0.1c-0.2,0-0.5-0.1-0.7-0.1c-0.3,0-0.5,0-0.8-0.1
			c-0.2,0-0.4,0-0.5,0c-0.5,0-0.9,0-1.4,0c-0.7,0-1.4,0-2,0.1c-0.2,0-0.3,0-0.5,0c-0.1,0-0.3,0-0.4,0.1c2.7,0.3,5.2,0.9,7.6,1.9
			l-10.1,6.3l1.1,2.5l14.4-9C1051,300.9,1049.9,300.5,1048.7,300.2z"/>
		<path d="M1054.5,316.5l-9.1,5.7l5.4,1.7l5.5-3.5L1054.5,316.5C1054.5,316.6,1054.5,316.5,1054.5,316.5z"/>
		<path d="M1070.6,328c0-0.8,0-1.5-0.1-2.2c0-0.1,0-0.3,0-0.4c-0.1-0.7-0.2-1.4-0.3-2.1c0-0.1,0-0.3-0.1-0.4
			c-0.1-0.7-0.3-1.4-0.5-2.1c0-0.1,0-0.1,0-0.2c-0.2-0.7-0.4-1.4-0.7-2.1c0,0,0-0.1,0-0.1c-0.3-0.7-0.5-1.4-0.8-2.1
			c0-0.1-0.1-0.1-0.1-0.2c-0.3-0.7-0.6-1.3-1-2c0,0,0,0,0-0.1c0-0.1-0.1-0.1-0.1-0.2l0.1,0c-0.7-1.3-1.6-2.5-2.5-3.6c0,0,0,0-0.1,0
			c0,0,0,0,0,0c-0.1,0.1-0.2,0.2-0.3,0.3l-3.8,2.4c0,0,0,0,0,0l-3.2,2c0.1,0.1,0.2,0.2,0.2,0.4l1.6,3.6l3.4-2.1
			c1.5,3.5,2.3,7.3,2.3,11.3c0,0.1,0,0.2,0,0.4l5.9,1.9c0-0.4,0.1-0.7,0.1-1.1C1070.6,328.8,1070.6,328.4,1070.6,328
			C1070.6,328,1070.6,328,1070.6,328z"/>
		<path d="M1058.5,310.4l3.9-2.4c0,0,0,0-0.1-0.1c-0.5-0.5-0.9-0.9-1.4-1.4c-0.1-0.1-0.1-0.1-0.2-0.2c-1.1-0.9-2.2-1.8-3.4-2.5
			c0,0,0,0,0,0c-0.6-0.4-1.2-0.7-1.9-1.1c0,0,0,0,0,0l-3,1.9C1054.7,306.2,1056.7,308.2,1058.5,310.4z"/>
	</g>
	<path d="M1035.1,311.9l-4.6-10c-5.4,2.4-9.9,6.4-12.9,11.3l10.2,3.3L1035.1,311.9z M1037.7,310.3l14.4-9c-3.1-1.2-6.5-1.8-10-1.8
		c-3,0-6,0.5-8.7,1.4L1037.7,310.3z M1059.1,326.6l-4.6-10c0,0,0,0,0-0.1l-9.1,5.7L1059.1,326.6z M1062.4,308
		c-2.1-2.1-4.4-3.9-7-5.2l-23.8,15l10.2,3.3L1062.4,308z M1057.2,315.3l5.6,12.2c0.1,0.1,0.1,0.2,0.1,0.3l7.6,2.5
		c0.1-0.8,0.1-1.5,0.1-2.3c0-6.7-2.3-12.9-6.3-17.8c-0.1,0.1-0.2,0.2-0.3,0.3l-7.1,4.4C1057.1,315.1,1057.2,315.2,1057.2,315.3z
		 M1010.5,349h-7.7c-0.5,0-1-0.3-1.3-0.7s-0.3-1,0-1.5l9-16.8V328c0-17.4,14.2-31.6,31.6-31.6s31.6,14.2,31.6,31.6
		c0,8.3-3.2,16.1-9,22v26.2c0,0.8-0.7,1.5-1.5,1.5s-1.5-0.7-1.5-1.5v-26.9c0-0.5,0.2-1,0.6-1.2c4.1-4.1,6.8-9.3,7.9-14.9l-54-17.4
		c-1.7,3.7-2.7,7.8-2.7,12.1v2.3c0,0.2-0.1,0.5-0.2,0.7l-8,14.9h6.7c0.8,0,1.5,0.7,1.5,1.5v12.9c0,3.5,2.8,6.3,6.3,6.3h14.7
		c0.8,0,1.5,0.7,1.5,1.5v8.1c0,0.8-0.7,1.5-1.5,1.5s-1.5-0.7-1.5-1.5v-6.6h-13.2c-5.1,0-9.3-4.2-9.3-9.3L1010.5,349L1010.5,349z"/>
</g>
<path class="st0" d="M79.8,10.2H20.2c-5.5,0-9.9,4.4-9.9,9.9v59.7c0,5.5,4.4,9.9,9.9,9.9h59.7c5.5,0,9.9-4.4,9.9-9.9V20.2
	C89.8,14.7,85.3,10.2,79.8,10.2z M78.4,59.5H59.5v18.9H40.5V59.5H21.6V40.5h18.9V21.6h18.9v18.9h18.9L78.4,59.5L78.4,59.5z"/>
</svg>
