<?xml version="1.0" encoding="utf-8"?>
<!-- Generator: Adobe Illustrator 25.2.0, SVG Export Plug-In . SVG Version: 6.00 Build 0)  -->
<svg version="1.1" id="Layer_1" xmlns="http://www.w3.org/2000/svg" xmlns:xlink="http://www.w3.org/1999/xlink" x="0px" y="0px"
	 viewBox="0 0 100.3 100.1" style="enable-background:new 0 0 100.3 100.1;" xml:space="preserve">
<style type="text/css">
	.st0{fill:#4167B0;}
</style>
<g>
	<path class="st0" d="M78.2,39.3C76.1,28.8,66.9,21.2,56,21.2c-7.3,0-14.1,3.5-18.4,9.4c-1.6-0.4-3.3-0.6-5-0.6
		C22.5,30,13.5,37,10.8,46.7c-5.1,1.5-8.8,6.2-8.8,11.6c0,6.7,5.4,12.1,12.1,12.1c1.2,0,2.5-0.2,3.7-0.6c4.1,3.5,9.2,5.5,14.6,5.5
		h3.7V61.3h-0.1v-0.9c0-1-0.8-1.8-1.8-1.8c-1,0-1.8,0.8-1.8,1.8v0.9v8.4v1.8c-4.8-0.1-9.4-1.9-12.8-5.3l-0.9-0.9l-1.2,0.5
		c-1.1,0.5-2.2,0.7-3.3,0.7c-4.5,0-8.2-3.7-8.2-8.2c0-4,2.9-7.4,6.8-8.1l1.3-0.2l0.3-1.3C16.2,40.2,23.9,34,32.7,34
		c1.8,0,3.5,0.3,5.3,0.8l1.4,0.4l0.8-1.2c3.5-5.5,9.4-8.8,15.9-8.8c9.5,0,17.5,7.1,18.6,16.6l0.2,2.2l2.1-0.5
		c9.1-2,17.3,5,17.3,13.8c0,7.8-6.4,14.2-14.2,14.2h-6.7V61.3h-0.1v-0.9c0-1-0.8-1.8-1.8-1.8c-1,0-1.8,0.8-1.8,1.8v0.9v8.4v5.7h3.3
		v0h7.2c10,0,18.1-8.1,18.1-18.1C98.2,46.7,89,38.1,78.2,39.3z"/>
	<path class="st0" d="M55.4,44C55.4,44,55.4,44,55.4,44c-2.2-2.1-3.9-1.1-4.7-0.4L50.3,44l0,0L39,55.4c-0.4,0.6-0.5,1.3,0.3,2.1
		c1.6,1.6,3.7-0.5,3.7-0.5l7.9-8v17.2v6.3v0.1c0,1.1,0.9,2,2,2s2-0.9,2-2v-0.1v-6.3V48.8l8.9,8.7c0,0,2,1.2,3.2,0l0,0
		c1.2-1.2-0.4-2.8-0.4-2.8L55.4,44z"/>
</g>
</svg>
