<?xml version="1.0" encoding="utf-8"?>
<!-- Generator: Adobe Illustrator 25.2.3, SVG Export Plug-In . SVG Version: 6.00 Build 0)  -->
<svg version="1.1"
	 id="Layer_1" xmlns:cc="http://creativecommons.org/ns#" xmlns:dc="http://purl.org/dc/elements/1.1/" xmlns:inkscape="http://www.inkscape.org/namespaces/inkscape" xmlns:rdf="http://www.w3.org/1999/02/22-rdf-syntax-ns#" xmlns:sodipodi="http://sodipodi.sourceforge.net/DTD/sodipodi-0.dtd" xmlns:svg="http://www.w3.org/2000/svg"
	 xmlns="http://www.w3.org/2000/svg" xmlns:xlink="http://www.w3.org/1999/xlink" x="0px" y="0px" viewBox="0 0 100 99.1"
	 style="enable-background:new 0 0 100 99.1;" xml:space="preserve">
<style type="text/css">
	.st0{fill-rule:evenodd;clip-rule:evenodd;}
</style>
<g transform="translate(0,-952.36218)">
	<path class="st0" d="M50,958.4c-24.3,0-44,19.7-44,44c0,24.3,19.7,44,44,44c24.3,0,44-19.7,44-44C94,978.1,74.3,958.4,50,958.4z
		 M50,962.4c22.1,0,40,17.9,40,40c0,22.1-17.9,40-40,40c-22.1,0-40-17.9-40-40C10,980.2,27.9,962.4,50,962.4z"/>
	<path class="st0" d="M34.8,985.4c-1.1,0.1-1.9,1.1-1.8,2.2c0,0.5,0.3,0.9,0.6,1.3l13.6,13.6l-13.6,13.6c-0.8,0.8-0.8,2.1,0,2.8
		c0.8,0.8,2.1,0.8,2.8,0l0,0l13.6-13.6l13.6,13.6c0.8,0.8,2.1,0.8,2.8,0c0.8-0.8,0.8-2.1,0-2.8l0,0l-13.6-13.6l13.6-13.6
		c0.8-0.8,0.8-2,0-2.8c-0.4-0.4-0.9-0.6-1.5-0.6c-0.5,0-1,0.2-1.4,0.6L50,999.5l-13.6-13.6c-0.4-0.4-0.9-0.6-1.4-0.6
		C34.9,985.3,34.8,985.3,34.8,985.4z"/>
</g>
</svg>
