<?xml version="1.0" encoding="utf-8"?>
<!-- Generator: Adobe Illustrator 25.2.0, SVG Export Plug-In . SVG Version: 6.00 Build 0)  -->
<svg version="1.1" id="Layer_1" xmlns="http://www.w3.org/2000/svg" xmlns:xlink="http://www.w3.org/1999/xlink" x="0px" y="0px"
	 viewBox="0 0 275.3 316.4" style="enable-background:new 0 0 275.3 316.4;" xml:space="preserve">
<style type="text/css">
	.st0{fill:#8DD1FF;}
</style>
<g>
	<path class="st0" d="M115.6,169.5c2.4-3.9,4.6-8,6.6-12.3c0-1.2-0.1-2.5-0.2-3.8c-2.7-0.9-5.3-2.1-7.8-3.4
		c-0.8-0.5-1.6-0.9-2.4-1.4c-0.2,2.8-0.4,5.6-0.7,8.3C112.8,160.9,114.3,165.2,115.6,169.5z"/>
	<path class="st0" d="M107.5,179.1c-0.3-1.7-0.6-3.1-0.9-4.4c0-1.1,0-2.3-0.1-3.5c-1.1-8.3-0.5-17.3,0.6-26
		c-3.1-2.5-5.9-5.4-8.5-8.6c-6.5-8.2-9.4-16.1-10.3-19.1l0-0.1c-0.8-2.6-0.5-5.3,0.8-7.7c1.3-2.3,3.4-4,6-4.8
		c0.9-0.3,1.9-0.4,2.8-0.4c4.4,0,8.3,2.9,9.6,7.2c0,0.1,0.1,0.2,0.1,0.4c0.1,0.4,0.3,0.9,0.6,1.6c0.5,1.3,1.5,3.4,2.9,5.8
		c1.6,2.7,4,6,7.3,9c-2.1-10.5-4.9-20.3-7.4-24.6c-1.7-3.9-4.6-7-8.5-8c-8.5-2.1-20.9,2.5-25.9,17.2c-6.8,20.2-8.3,33.3-5.7,55.5
		c0.9,4.6,2.4,8,4.4,10.6L107.5,179.1L107.5,179.1z"/>
	<path class="st0" d="M216,87.6v-52c0-2.2-1.8-4-4-4h-83.5c-2.2,0-4,1.8-4,4v10.3c6.9,1.6,12.7,5.8,16.4,11.8c3.7,6,4.9,13.1,3.3,20
		c-1.3,5.6-4.3,10.4-8.3,13.9H212C214.2,91.6,216,89.8,216,87.6z M132.7,40.2h-3.8v-3.8h3.8V40.2z M138.5,40.2h-3.8v-3.8h3.8V40.2z
		 M144.3,40.2h-3.8v-3.8h3.8V40.2z M150.2,40.2h-3.8v-3.8h3.8V40.2z M158.6,78.9c-3.2,0-5.8-2.6-5.8-5.8s2.6-5.8,5.8-5.8
		s5.8,2.6,5.8,5.8C164.4,76.3,161.8,78.9,158.6,78.9z M167.4,64.6c-4.1,0-7.5-3.4-7.5-7.5s3.4-7.5,7.5-7.5c4.1,0,7.5,3.4,7.5,7.5
		C174.9,61.3,171.5,64.6,167.4,64.6z M183.6,78.6c-4.8,0-8.8-3.9-8.8-8.8s3.9-8.8,8.8-8.8s8.8,3.9,8.8,8.8S188.4,78.6,183.6,78.6z"
		/>
	<path class="st0" d="M148.9,240.9L148.9,240.9H53.7H14c-1.4,0-2.8-0.2-4.2-0.6v27.3c0,2.2,1.8,4,4,4h7.5v5.3c0,2.2,1.8,4,4,4h26
		c2.2,0,4-1.8,4-4v-5.3h40.4c0.1,0.6,0.1,1.3,0.2,1.9c0.7,6.4,6.1,11.2,12.4,11.2c0.4,0,0.8,0,1.3-0.1c6.7-0.7,11.6-6.5,11.2-13.1
		h92.5v5.3c0,2.2,1.8,4,4,4h26c2.2,0,4-1.8,4-4v-5.3h7.5c2.2,0,4-1.8,4-4v-38.3c0-2.2-1.8-4-4-4h-47.1c-0.9,0.5-1.8,1-2.8,1.5
		C187.2,236.1,168.3,240.9,148.9,240.9z"/>
	<path class="st0" d="M273.8,152.5c3.4-6.9,0.6-15.3-6.4-18.7c-6.9-3.4-15.3-0.6-18.7,6.4h0c0,0,0,0,0,0h0
		c-0.4,0.8-9.8,19.1-26.9,36.6c-8.6,8.9-19.2,17.5-31.4,23.8c-0.5,0.2-0.9,0.5-1.4,0.7c-6.8,4.6-14.4,8.5-23.9,12.5l-0.1,0l-0.1,0
		c-3.4,1.1-6.6,1.7-9.5,1.7c-4.9,0-9.2-1.5-12.9-4.6c-34.4,0-65.7,0-88.7,0c-24.5,0-39.7,0-39.7,0c-7.7,0-14,6.3-14,14
		c0,7.7,6.3,14,14,14v0c0,0,15.2,0,39.7,0c24.5,0,58.2,0,95.1,0c21,0,39.6-5.6,55.2-13.9c23.5-12.4,40.7-30.4,52.2-45.3
		C267.7,164.9,273.5,153.1,273.8,152.5z"/>
	
		<ellipse transform="matrix(0.7382 -0.6746 0.6746 0.7382 -24.8711 184.3439)" class="st0" cx="225.1" cy="124.2" rx="22.5" ry="22.5"/>
	<path class="st0" d="M142.8,207.1c4.5,4.5,10.9,7.1,21.2,3.7c20.6-8.6,31.4-16.3,45.6-32.1c10.3-11.6,8.3-24.6,2.3-31
		c-6-6.4-18.3-3.8-25.5,3.5c-8.7,7.4-20,17.8-32.5,25c8.9-1,17.2-4.3,24.8-9.9c6.7-5.1,10.5-10.4,10.8-10.9c0,0,0,0,0.1-0.1
		c1.9-2.8,5-4.5,8.4-4.5c1.9,0,3.8,0.6,5.4,1.6c4.6,3,6,9.2,3,13.8c-1.3,2-6,8.6-14.7,15.3c-8.7,6.8-23.3,15-43.1,15h0
		c-5.3,0-10.8-0.6-16.3-1.8c-5.4-1.1-8.9-6.5-7.7-11.9c0.1-0.3,0.1-0.5,0.2-0.8H42.3c-6.9,0-12.5,5.6-12.5,12.5s5.6,12.5,12.5,12.5
		L142.8,207.1L142.8,207.1z"/>
	<path class="st0" d="M126.3,183.3c-0.9,4.3,1.8,8.6,6.2,9.5c5.6,1.2,10.9,1.7,15.9,1.7c0,0,0,0,0,0c18.6,0,32.7-7.4,41.9-14.6
		c9.3-7.2,13.9-14.3,14.2-14.8c2.4-3.7,1.3-8.7-2.4-11.1c-3.7-2.4-8.6-1.3-11,2.4l0,0c0,0,0,0,0,0v0c0,0,0,0,0,0c0,0,0,0,0,0v0
		c-0.3,0.5-4.2,6.1-11.3,11.4c-7.3,5.5-17.6,10.6-31.4,10.6c-3.9,0-8.1-0.4-12.6-1.4C131.4,176.2,127.2,179,126.3,183.3z"/>
	<path class="st0" d="M165.7,150.6l4.6,7.6c0.4,0.7,1,1.1,1.7,1.3c0.9,0.3,1.8,0.2,2.7-0.3c1.1-0.7,1.7-2,1.5-3.2
		c-0.1-0.4-0.2-0.8-0.4-1.1l-5.9-9.7c-0.1,0.4-0.3,0.8-0.4,1.1C168.6,148.1,167.3,149.6,165.7,150.6z"/>
	<path class="st0" d="M157,132.7c1.1-0.4,2.2-0.6,3.4-0.6c0.5,0,1.1,0,1.6,0.1l-3.2-5.2c-0.4-0.6-1-1.1-1.6-1.3
		c-0.2-1.9-0.3-3.5-0.3-5c0-5.5,1.5-8,3.4-9.4c3-2.1,8.2-1.7,12.8-3c4.7-1.3,8.7-5.3,8.6-15.4h-2h0c0,6.5-1.5,9.8-3.5,11.6
		c-3,2.8-8,2.5-12.6,3.5c-2.3,0.5-4.5,1.4-6.1,3.4c-1.6,2-2.5,5-2.5,9.3c0,1.5,0.1,3.1,0.3,4.9c-0.2,0.1-0.5,0.2-0.7,0.3
		c-1.5,0.9-2,2.9-1.1,4.3l1.8,3C155.8,133.1,156.4,132.9,157,132.7z"/>
	
		<ellipse transform="matrix(0.2268 -0.9739 0.9739 0.2268 21.7252 170.8154)" class="st0" cx="118.4" cy="71.7" rx="22.5" ry="22.5"/>
	<path class="st0" d="M109.4,120.5c-1.4-2.4-2.4-4.5-3-6c-0.3-0.8-0.5-1.3-0.6-1.7c-0.1-0.2-0.1-0.3-0.1-0.4c0,0,0,0,0,0
		c0,0,0,0,0,0l0,0c-1.2-4.2-5.7-6.7-9.9-5.4c-4.2,1.2-6.7,5.7-5.5,9.9c0.2,0.6,2.7,9.4,10,18.6c3.7,4.6,8.6,9.3,15,12.9
		c6.4,3.6,14.4,6,23.7,6c0,0,0,0,0.1,0c7.3,0,15.3-1.4,24.1-4.6c4.2-1.5,6.3-6.1,4.8-10.2c-1.5-4.2-6.1-6.3-10.2-4.8
		c-7.3,2.6-13.5,3.6-18.7,3.6c-6.6,0-11.7-1.6-16-3.9C116.6,130.8,112.2,125.2,109.4,120.5z"/>
</g>
</svg>
