<?xml version="1.0" encoding="utf-8"?>
<!-- Generator: Adobe Illustrator 25.2.0, SVG Export Plug-In . SVG Version: 6.00 Build 0)  -->
<svg version="1.1" id="Layer_1" xmlns="http://www.w3.org/2000/svg" xmlns:xlink="http://www.w3.org/1999/xlink" x="0px" y="0px"
	 viewBox="0 0 50 62.5" style="enable-background:new 0 0 50 62.5;" xml:space="preserve">
<style type="text/css">
	.st0{fill:#A87763;}
</style>
<g>
	<path class="st0" d="M30.8,37c-0.6,0.6-1.5,1-2.4,1h-3c-1.8,0-3.3-1.5-3.3-3.3s1.5-3.3,3.3-3.3h3c0.9,0,1.8,0.4,2.4,1h4.3
		c1.1-3.5,0.9-6.8,0.9-6.8c0.5-7.6-4.8-10.5-4.8-10.5c-0.5,2.9-5.7,5.7-9.7,6.5c-4,0.8-5.6,2.9-5.6,2.9c-4.6,6.7,2.5,13.3,3,13.8
		l0,0c3.8,1.9,7.8,1.9,11.9,0c0,0,0,0,0,0c0.6-0.4,1.2-0.9,1.7-1.4H30.8z"/>
	<path class="st0" d="M17,38.9c-1-1.1-2.6-3-3.5-5.4h-3.1c-0.8,1.3-2,2.7-3.9,4C6.5,37.5,7.9,41.1,17,38.9z"/>
	<path class="st0" d="M21.2,20c3.9-0.8,8.1-3.4,8.4-5.1l0.4-2.6c-1.5-0.6-3.2-1-5.1-1c-6.7,0-10.4,4.1-11,12.1v1.5
		c0.2-0.4,0.5-0.8,0.8-1.3C14.8,23.3,16.7,20.9,21.2,20z"/>
	<path class="st0" d="M44.5,37.4c0,0-2.3-1.4-3.5-3.9h-0.2c-0.8,2-2.8,3.5-5.1,3.5h-0.9c-0.4,0.5-0.9,1.1-1.4,1.5l0.3,0.4L33,39.2
		C35.5,39.9,39.8,40.3,44.5,37.4z"/>
	<path class="st0" d="M24.8,6.8c8.8,0,14.8,5.4,16.1,14.6H41c0.1,0,0.2,0,0.2,0c0.2-5.8-1.2-13.2-9.3-13.5c0,0-8.5-9.3-18.2,1.1
		c0,0-3,2.7-3.6,8.7C12.3,10.7,17.4,6.8,24.8,6.8z"/>
	<path class="st0" d="M32.6,41.3v2.2c0,4.3-3.5,7.7-7.7,7.7c-4.2,0-7.7-3.5-7.7-7.7v-2.1c-4,0.5-7.5,2.3-10.2,5
		c-3.1,3.1-5.1,7.5-5.1,12.3h46.4C48.3,49.6,41.4,42.1,32.6,41.3z"/>
	<path class="st0" d="M18.9,40.2v3.3c0,3.3,2.7,6,6,6c3.3,0,6-2.7,6-6v-3.3c-2.1,0.9-4.1,1.3-6.1,1.3C22.8,41.5,20.8,41,18.9,40.2z"
		/>
	<path class="st0" d="M9.3,31.8H12v-8.4c0.6-8.8,5.1-13.7,12.7-13.7c7.9,0,12.9,5.2,13.5,14.1v7h0v0.8c0,1.5-1.2,2.7-2.7,2.7h-5.7
		c-0.2-0.6-0.8-1-1.5-1h-3c-0.9,0-1.6,0.7-1.6,1.6v0c0,0.9,0.7,1.6,1.6,1.6h3c0.7,0,1.3-0.4,1.5-1h5.7c2,0,3.6-1.5,3.8-3.5H41
		c1.1,0,1.9-0.9,1.9-1.9v-4.8c0-1.1-0.9-1.9-1.9-1.9h-1.6c-0.8-9.2-6.1-14.6-14.6-14.6c-8.2,0-13.1,5.3-13.9,14.6H9.3
		c-1.1,0-1.9,0.9-1.9,1.9v4.8C7.4,30.9,8.3,31.8,9.3,31.8z"/>
</g>
</svg>
