<?xml version="1.0" encoding="utf-8"?>
<!-- Generator: Adobe Illustrator 25.2.0, SVG Export Plug-In . SVG Version: 6.00 Build 0)  -->
<svg version="1.1" id="Layer_1" xmlns="http://www.w3.org/2000/svg" xmlns:xlink="http://www.w3.org/1999/xlink" x="0px" y="0px"
	 viewBox="0 0 64 80" style="enable-background:new 0 0 64 80;" xml:space="preserve">
<style type="text/css">
	.st0{fill:#A87763;}
</style>
<path class="st0" d="M28.1,59.8L27.4,59h9.3l-0.7,0.9H28.1z M38.4,59l-1.6,1.9c-0.1,0.2-0.3,0.2-0.5,0.2h-8.5
	c-0.2,0-0.4-0.1-0.5-0.2L25.6,59H2v1c0,1.1,0.9,2,2,2h56c1.1,0,2-0.9,2-2v-1H38.4z M59.7,20.6c0-0.4-0.3-0.7-0.7-0.7H49v0.8
	c0,0.3-0.2,0.6-0.5,0.6l-3.6,0.9c0,0.1-0.1,0.2-0.1,0.3h11.6c0.4,0,0.7,0.3,0.7,0.7c0,0,0,0,0,0v31c0,0.4-0.3,0.7-0.7,0.7
	c0,0,0,0,0,0H7.7c-0.4,0-0.7-0.3-0.7-0.7c0,0,0,0,0,0v-31c0-0.4,0.3-0.7,0.7-0.7c0,0,0,0,0,0h11.6c0-0.1-0.1-0.2-0.1-0.3l-3.6-0.9
	C15.2,21.3,15,21,15,20.7v-0.8H5c-0.4,0-0.7,0.3-0.7,0.7v37h55.3V20.6z M19.8,21.1l-3.4-0.9v-5.1l3.4-0.9c0.2-0.1,0.4-0.2,0.5-0.4
	c0.2-0.6,0.4-1.2,0.7-1.7c0.1-0.2,0.1-0.5,0-0.7l-1.8-3.1l3.6-3.6l3.1,1.8c0.2,0.1,0.4,0.1,0.7,0c0.6-0.3,1.1-0.5,1.7-0.7
	c0.2-0.1,0.4-0.2,0.4-0.5L29.5,2h5.1l0.9,3.5c0.1,0.2,0.2,0.4,0.4,0.5c0.6,0.2,1.2,0.4,1.7,0.7c0.2,0.1,0.5,0.1,0.7,0l3.1-1.8
	l3.6,3.6L43,11.4c-0.1,0.2-0.1,0.4,0,0.7c0.3,0.6,0.5,1.1,0.7,1.7c0.1,0.2,0.3,0.4,0.5,0.4l3.4,0.9v5.1l-3.4,0.9
	c-0.2,0.1-0.4,0.2-0.5,0.4c-0.2,0.5-0.4,1-0.6,1.5c0,0.1-0.1,0.1-0.1,0.2c-0.1,0.2-0.1,0.5,0,0.7l1.8,3l-3.6,3.6l-3-1.8
	c-0.2-0.1-0.4-0.1-0.7,0c-0.6,0.3-1.1,0.5-1.7,0.7c-0.2,0.1-0.4,0.2-0.4,0.5l-0.9,3.4h-5.1l-0.9-3.4c-0.1-0.2-0.2-0.4-0.4-0.5
	c-0.6-0.2-1.2-0.4-1.7-0.7c-0.2-0.1-0.5-0.1-0.7,0l-3,1.8L19.1,27l1.8-3c0.1-0.2,0.1-0.5,0-0.7c0-0.1-0.1-0.1-0.1-0.2l0,0
	c0,0,0,0,0,0c-0.2-0.5-0.4-1-0.6-1.5C20.2,21.3,20,21.1,19.8,21.1L19.8,21.1z M22.1,17.7c0,5.5,4.4,9.9,9.9,9.9
	c5.5,0,9.9-4.4,9.9-9.9c0-5.5-4.4-9.9-9.9-9.9h0C26.5,7.7,22.1,12.2,22.1,17.7L22.1,17.7z M19.4,23.9h-11v29.7h47.3V23.9h-11
	l1.7,2.8c0.2,0.3,0.1,0.6-0.1,0.8l-4.3,4.3c-0.2,0.2-0.6,0.3-0.8,0.1L37.9,30c-0.4,0.2-0.8,0.4-1.3,0.5l-0.9,3.6
	c-0.1,0.3-0.3,0.5-0.6,0.5h-6.1c-0.3,0-0.6-0.2-0.6-0.5l-0.9-3.6c-0.4-0.2-0.8-0.3-1.3-0.5L23,32c-0.3,0.2-0.6,0.1-0.8-0.1l-4.3-4.3
	c-0.2-0.2-0.3-0.6-0.1-0.8L19.4,23.9z M23.4,17.7c0-4.8,3.9-8.6,8.6-8.6s8.6,3.9,8.6,8.6c0,4.8-3.9,8.6-8.6,8.6
	C27.3,26.3,23.4,22.4,23.4,17.7L23.4,17.7z M33.8,19.6c0,0.7-0.6,1.3-1.3,1.3h-1c-0.7,0-1.3-0.6-1.3-1.3c0-0.4-0.3-0.7-0.7-0.7
	s-0.7,0.3-0.7,0.7c0,1.4,1.1,2.5,2.4,2.6v0.9c0,0.4,0.3,0.7,0.7,0.7c0.4,0,0.7-0.3,0.7-0.7v-0.9c1.4-0.1,2.5-1.3,2.4-2.8
	C35,18.1,33.9,17,32.5,17h-1c-0.7,0-1.3-0.6-1.3-1.3c0-0.7,0.6-1.3,1.3-1.3l0,0h1c0.7,0,1.3,0.6,1.3,1.3c0,0.4,0.3,0.7,0.7,0.7
	c0.4,0,0.7-0.3,0.7-0.7c0,0,0,0,0,0c0-1.4-1.1-2.5-2.4-2.6v-0.9c0-0.4-0.3-0.7-0.7-0.7c-0.4,0-0.7,0.3-0.7,0.7v0.9
	c-1.4,0.1-2.5,1.3-2.4,2.8c0.1,1.4,1.2,2.4,2.6,2.4h1C33.2,18.3,33.8,18.9,33.8,19.6L33.8,19.6z"/>
</svg>
