<?xml version="1.0" encoding="utf-8"?>
<!-- Generator: Adobe Illustrator 25.2.0, SVG Export Plug-In . SVG Version: 6.00 Build 0)  -->
<svg version="1.1" id="Layer_1" xmlns="http://www.w3.org/2000/svg" xmlns:xlink="http://www.w3.org/1999/xlink" x="0px" y="0px"
	 viewBox="0 0 841.9 744.1" style="enable-background:new 0 0 841.9 744.1;" xml:space="preserve">
<style type="text/css">
	.st0{fill:#2376BC;}
</style>
<path class="st0" d="M641,409c-1.3-0.6-2.6-1.3-4-1.7c-14.7-4.3-30.6-0.6-46,10.9c-4.1,3-4.9,8.7-1.9,12.8c3,4,8.7,4.9,12.8,1.9
	c7.4-5.5,18.6-11.3,29.9-8c2.4,0.7,4.3,1.9,6.1,3.3c-1.7,6.9-3.8,13.8-6.7,20.4c-1,2.2-2.1,4.4-3.3,6.6c-3.3,6.2-7,13.2-7.8,21.7
	c-0.7,7.9-2.1,14.7-4.1,20.7c-4.4,13.1-11.3,25-19.9,35.3l0.5-1.3c0.7-2.3,1.6-4.5,2.5-6.7c4.1-10.1,9.7-23.8-1.6-41.5
	c-9.7-15.2-23.9-21.7-40.6-19c0.7-5.9,0.7-11.7,0.1-17.2c-3-27.4-12.9-36.8-30.2-44.6c-19.7-8.9-40.9-5.3-58.1,9.7
	c-6.8,6-11.7,12.7-16.1,18.6c-7.1,9.7-9.9,12.6-13.1,11.8c-0.1,0-0.2,0-0.3,0V263.3c9.4-2.2,19.2,0.5,25.9,7.3c8,8.1,16,24.4,8.7,35
	c-5.7,8.3-18.8,29.1-16.4,44.1c1.5,10,7.2,18.6,15.4,23.6c3.1,1.9,7.3,3.5,12.6,3.5c4.7,0,10.3-1.3,16.7-5c4.4-2.5,5.9-8.1,3.4-12.5
	c-2.5-4.4-8.1-6-12.5-3.4c-4.7,2.7-8.3,3.2-10.9,1.7c-3.6-2.1-6.1-6-6.7-10.7c-0.6-3.7,2.5-15.3,13.4-30.9
	c8.7-12.6,7.4-28.4,0.8-41.9c10.6,0.3,22.8-1.5,32.7-5.4c10.3-4.1,17.2-10.1,20.5-17.8l0.5-1.4c2.4-9.7,1.2-20.1-3.4-28.6
	c-5.7-10.5-14-15.7-21.4-20.3l-1.1-0.6c-9.3-4.1-16.2-12.7-17-20.9c-0.5-5.6,2.1-10.3,7.1-13.8c0.3-0.2,0.6-0.2,0.9-0.4
	c0.3,0.3,0.7,0.5,1,0.8c2.5,2.4,5.7,3.7,9.4,3.6l1.3,0c10.2,0,22.2,5.1,30.7,12.9c7.3,6.7,12.2,16,16.4,31.2c1,3.6,3.5,6.5,6.8,8.1
	c11,5.2,21.7,16,29.3,29.3c-1.2,3.2-2.6,5.8-3.7,7.5c-5.8,9.1-13.6,13.9-18.8,13.4c-22.2-1.1-39.9,8.8-49,27
	c-12.7,18.6-12.3,51.4,0.4,68.4c9.9,17.1,26.8,26,50.5,26.5h0.2c5,0,9-4,9.1-9c0.1-5-3.9-9.2-9-9.3c-17.3-0.3-28.4-5.8-35.6-18.2
	c-8.6-11.6-8.8-36.5-0.3-48.4l0.8-1.3c7.4-15.2,21.5-17.8,32.1-17.4c10.9,0.5,23.2-6.4,32.1-17.8c3.1,12,3.8,24.9,1.9,39.8
	c-0.4,3.6,0.6,7.1,3,9.8c1.4,1.6,2.6,3.4,3.9,5.2c-8.7,5.8-19.5,7.9-31.4,2.4c-4.6-2.1-10-0.1-12.1,4.5c-2.1,4.6-0.1,10,4.5,12.1
	c7.2,3.3,14.6,5,21.9,5c9.4,0,18.3-2.9,26.4-8.1c7.5,16.3,11.6,36,11.4,57.1C641.5,402.9,641.3,405.9,641,409 M558.4,560.9
	c-0.9,0.4-1.8,0.7-2.7,1c-4,1.4-9.5,3.4-14.3,8.6c-2.4,2.6-5.2,5.7-8.3,8.1c-6,4.7-11.5,8-17.3,10.3c-10.8,4.4-23.1,6.4-39.8,6.5
	c-24.9-3.6-33.3-30.5-32.9-52.7c0-2.8,0.1-5.7,0.3-8.1c0.1-1.1,0.8-5,1.1-6.3c0.7-2.8,0.4-5.8-0.9-8.4c-0.3-0.7-0.6-1.4-1.1-2.4
	c0,0-1.3-2.1-1.3-2.2c0,0,0-0.1,0-0.1c10.5-0.2,21.6-5.6,29.8-10.7c16.8-10.4,36.6-29.5,40.3-46.7c1-4.9-2.1-9.8-7.1-10.8
	c-4.9-1-9.8,2.1-10.8,7.1c-2.1,9.8-16.1,25.1-32,35c-10.9,6.8-18.5,8.4-22.3,7.8V461c13.1,0.9,21.1-9.7,28.2-19.2
	c4-5.4,8.1-11,13.4-15.7c15.9-13.9,31-10.2,38.5-6.8c11.2,5,17.2,8.7,19.5,29.9c2.5,22.2-9.1,51.5-25.7,65.1
	c-3.2,2.7-6.8,5.1-10.4,7.5c-11,7.6-23.5,16.2-26,30.8c-1.8,10.6,2.1,22.2,12,35.6c1.8,2.4,4.6,3.7,7.4,3.7c1.9,0,3.8-0.6,5.4-1.8
	c4.1-3,4.9-8.7,1.9-12.8c-6.7-9.1-9.6-16.4-8.7-21.8c1.2-6.9,9.5-12.7,18.3-18.7c4-2.7,8-5.5,11.6-8.5c12.4-10.1,22.4-26.5,27.9-44
	c17.1-6.8,25,1.6,29.5,8.7c6.2,9.7,3.8,15.7,0.1,24.8c-1.1,2.6-2.1,5.2-3,8c-2.1,4.5-0.2,9.8,4.2,12c2.8,1.4,5.9,1.1,8.4-0.3
	C582.3,547.7,570.9,555.8,558.4,560.9 M439.2,224.1c1-1.1,1.9-2.2,2.5-3.6c0.8-1.9,1.8-3.7,2.9-5.5c1.5-2.5,2.1-5.4,1.7-8.2
	c-1.1-8-3.2-35,16.2-46.6c7.7-4.6,18.1-5.7,27.8-3.8c-6,6.8-8.9,15.1-8.1,24.2c1.3,14.6,12.1,28.8,27.1,35.7
	c6.9,4.3,11.4,7.5,14.5,13.2c2.3,4.2,3,9.8,2,14.7c-1.9,3.6-6.5,6-10.1,7.4c-14.1,5.5-34.9,4.9-42,1.8c-0.3-0.1-0.6-0.2-0.9-0.3
	c-9.6-7.1-21.6-9.8-33.5-8.2L439.2,224.1L439.2,224.1z M420.9,244.9c-11.8-1.6-23.8,1.2-33.4,8.2c-0.3,0.1-0.6,0.2-0.9,0.3
	c-7.1,3.1-27.9,3.8-42-1.8c-3.6-1.4-8.3-3.9-10.1-7.4c-1.1-5-0.3-10.5,2-14.8c3.1-5.7,7.5-8.8,14.5-13.2c15-6.9,25.8-21.2,27.1-35.7
	c0.8-9.1-2-17.4-8.2-24.2c9.8-2,20.3-1.1,27.4,3.5c18.5,12.1,18.4,34.6,16.7,46.9c-0.4,2.8,0.2,5.7,1.7,8.2c1.1,1.8,2.1,3.6,2.9,5.5
	c0.6,1.4,1.5,2.6,2.5,3.6L420.9,244.9L420.9,244.9z M420.9,442.7c-0.1,0-0.1,0-0.2,0c-3.2,0.8-6-2.1-13.1-11.8
	c-4.4-5.9-9.3-12.6-16.1-18.6c-17.2-15.1-38.4-18.6-58.1-9.7c-17.2,7.8-27.1,17.2-30.2,44.6c-0.6,5.5-0.6,11.3,0.1,17.2
	c-16.5-2.7-30.9,3.8-40.6,19c-11.3,17.7-5.7,31.5-1.6,41.5c0.9,2.2,1.8,4.4,2.5,6.6c0.1,0.4,0.5,1.3,0.8,2
	c-9-10.4-16.1-22.6-20.2-35.7c-2.5-7.9-3.9-15.5-4.3-22.5c-0.3-6.2-3.1-11-5.1-14.4c-0.5-0.8-0.9-1.6-1.3-2.4
	c-1.8-3.7-3.5-7.3-5.1-11.1c-2.7-6.4-4.7-12.8-6.2-19.2c1.8-1.4,3.8-2.6,6.2-3.4c11.4-3.3,22.6,2.5,29.9,8c4,3,9.8,2.2,12.8-1.9
	c3-4,2.2-9.8-1.9-12.8c-15.3-11.4-31.2-15.2-46-10.9c-1.5,0.4-2.7,1.2-4.2,1.8c-0.2-3-0.4-6.1-0.4-9.1c0.1-13.9,2.1-36.6,11.5-57.3
	c8.1,5.2,17.1,8.1,26.4,8.1c7.2,0,14.6-1.6,21.9-5c4.6-2.1,6.6-7.5,4.5-12.1c-2.1-4.6-7.6-6.6-12.1-4.5c-11.9,5.5-22.8,3.5-31.4-2.4
	c1.3-1.7,2.4-3.6,3.8-5.2c2.3-2.7,3.4-6.2,3-9.8c-1.8-15.4-1.2-28.4,1.8-40c8.8,11.5,21.2,18.6,32.3,17.9
	c10.7-0.4,24.7,2.2,32.1,17.4l0.8,1.3c8.5,11.9,8.3,36.8-0.9,49.3c-6.6,11.5-17.7,17-35,17.3c-5.1,0.1-9.1,4.3-9,9.3
	c0.1,5,4.2,9,9.1,9h0.2c23.7-0.4,40.7-9.3,49.9-25.5c13.3-17.9,13.7-50.7,1-69.3c-9.2-18.2-26.9-28-49-27c-5.2,0.4-13-4.3-18.9-13.4
	c-1-1.6-2.4-4.1-3.6-7.2c7.9-13.7,18.2-24.4,29.1-29.5c3.4-1.6,5.9-4.6,6.8-8.1c3-11,7.3-23.3,16.1-30.9
	c9.5-8.2,21.1-13.2,31.1-13.2l1.4,0c3.5,0.1,6.9-1.1,9.4-3.6c0.3-0.3,0.7-0.5,1.1-0.8c0.1,0.1,0.3,0.1,0.4,0.2c5.5,3.7,8,8.4,7.5,14
	c-0.7,8.2-7.7,16.8-17,20.9l-1.1,0.6c-7.4,4.6-15.7,9.8-21.4,20.3c-4.6,8.5-5.8,19-3.4,28.6l0.5,1.4c3.3,7.8,10.2,13.8,20.5,17.8
	c9.9,3.9,22,5.5,32.7,5.4c-6.6,13.5-7.9,29.3,0.8,42c10.8,15.7,14,27.3,13.4,30.9c-0.7,4.7-3.2,8.6-6.8,10.7
	c-2.6,1.5-6.2,1-10.9-1.7c-4.4-2.5-9.9-1-12.4,3.4c-2.5,4.4-1,10,3.4,12.5c13.5,7.6,23.4,5,29.3,1.5c8.2-4.9,13.8-13.5,15.4-23.6
	c2.3-15-10.7-35.9-16.4-44.1c-7.3-10.6,0.7-26.8,8.7-35c6.8-6.8,16.5-9.5,25.9-7.4L420.9,442.7L420.9,442.7z M420.9,496.7
	c-3.7,0.5-11.3-1.1-22.2-7.8c-15.9-9.8-29.9-25.2-32-35c-1.1-4.9-5.9-8.1-10.8-7.1c-4.9,1-8.1,5.9-7.1,10.8
	c3.6,17.3,23.4,36.3,40.3,46.7c8.2,5.1,19.3,10.4,29.8,10.6c-0.2,0.3-0.3,0.6-0.5,0.9c-0.3,0.6-0.6,1.2-1,1.8
	c-1.5,2.4-2.2,5.3-1.8,8.1c1.7,15.1,4.4,64.4-31.7,69.6c-17.5-0.1-30.1-2.3-40.8-7c-6.7-2.9-12.5-6.5-17.3-10.7
	c-3.5-3.1-6.2-5.8-8.3-8.5c-3.9-4.8-9.7-6.5-13.8-7.7c-0.7-0.2-1.5-0.4-2.1-0.6c-12.6-5.1-24.1-13.3-33.7-23.3
	c2.7,1.7,6.1,2.2,9,0.6c4.5-2.3,6.3-7.6,4-12c-0.8-2.8-1.9-5.5-3-8.2c-3.7-9.1-6.1-15.1,0.1-24.8c4.5-7.1,12.4-15.5,29.5-8.7
	c5.6,17.5,15.5,33.8,27.9,44c3.6,3,7.6,5.8,11.6,8.5c8.8,6.1,17.2,11.8,18.3,18.7c0.9,5.4-2,12.7-8.7,21.7c-3,4.1-2.1,9.8,1.9,12.8
	c4.1,3,9.8,2.1,12.8-2c9.9-13.4,13.8-25,12-35.6c-2.4-14.6-15-23.2-26-30.7c-3.5-2.4-7.1-4.9-10.4-7.6
	c-16.6-13.7-28.2-42.9-25.7-65.1c2.4-21.3,8.3-24.9,19.5-29.9c7.6-3.4,22.7-7.1,38.5,6.8c5.3,4.7,9.4,10.2,13.4,15.7
	c7,9.6,15,20.1,28.1,19.3L420.9,496.7L420.9,496.7z M749.4,389.2c17.8,0,32.3-14.5,32.3-32.3c0-17.8-14.5-32.3-32.3-32.3
	c-13.3,0-24.8,8.1-29.7,19.7h-58.9c-0.9,0-1.8,0.3-2.6,0.5c-4.5-13.2-10.6-25.2-18.4-35.2c2.1-22.7-0.9-42.8-9.1-61.2
	c-9-20.3-23.9-37.6-40.5-47.2c-3.8-12.3-9.9-26.7-22.1-37.9c-0.9-0.8-2-1.5-2.9-2.3c0.9-0.5,1.7-0.9,2.5-1.6l53.7-49.9h97.9
	c4.6,12.2,16.4,20.9,30.2,20.9c17.8,0,32.3-14.5,32.3-32.3c0-17.8-14.5-32.3-32.3-32.3c-13.8,0-25.5,8.7-30.2,20.9H612.3l-67.2,62.3
	c-7.3-2.9-14.8-4.8-22.1-5.2c-19.7-15.9-51.9-18.5-73.6-5.5c-8,4.8-14.4,11.4-19.3,19.4c0,0-0.1,0-0.1,0c-0.1,0-0.2,0.1-0.4,0.1
	c-4.7-7.6-10.9-14.1-18.6-19.2c-20.7-13.5-53.9-10.8-73.9,5.2c-1.1,0.1-2.3,0.4-3.4,0.5l-54.1-59.7H140
	c-5.1-11.1-16.3-18.9-29.3-18.9c-17.8,0-32.3,14.5-32.3,32.3c0,17.8,14.5,32.3,32.3,32.3c13.6,0,25.3-8.5,30-20.4h127.7l38.8,42.9
	c-5.2,2.8-10.3,6.1-14.9,10.1c-12.3,10.6-18.5,25.3-22.4,38.1c-21.8,12.5-34.5,34.4-40.4,47c-8.2,17.6-11.2,37.7-9.1,61.3
	c-14.6,18.9-23.6,44.7-26.3,74c-0.8-0.2-1.5-0.5-2.4-0.5h-11l-37.9-24c0.1-0.7,0.2-1.4,0.2-2.1c0-17.8-14.5-32.3-32.3-32.3
	c-17.8,0-32.3,14.5-32.3,32.3c0,17.8,14.5,32.3,32.3,32.3c7.8,0,14.9-2.9,20.5-7.6l42.1,26.7h18.4c0.7,0,1.2-0.3,1.8-0.4
	c0.9,16.1,4.6,32.6,11.4,49c1.8,4.3,3.7,8.5,5.8,12.7c0.6,1.3,1.3,2.5,2.1,3.8c0.6,1.1,1.6,2.7,1.7,3c0.5,9.2,2.3,18.9,5.4,28.8
	c2.7,8.7,6.5,17.1,11.1,25l-0.4,72.6h-90.2c-4.9-11.5-16.4-19.7-29.7-19.7c-17.8,0-32.3,14.5-32.3,32.3c0,17.8,14.5,32.3,32.3,32.3
	c13.3,0,24.8-8.1,29.7-19.7H256v-67.1c10.7,9.8,22.9,17.8,36.1,23.2c1.3,0.5,2.9,1,4.6,1.5c0.8,0.2,1.5,0.4,2.3,0.7
	c2.8,3.3,6,6.5,10.1,10.2c6.8,6,14.9,11,24,15c14.2,6.2,30.1,9,51.6,9.1h0c0.5,0,1,0,1.6-0.1c19.4-2.4,34.4-12.5,43.8-28.7
	c9.1,15,23.4,26.2,43.5,28.6c0.5,0.1,1,0.1,1.6,0.1c12.7,0,31.8-1,50-8.4c7.9-3.2,15.6-7.7,23.4-13.9c4.6-3.6,8.4-7.6,11.5-11.1
	c0.4-0.5,2.1-1,3.8-1.7c1.2-0.4,2.5-0.9,3.8-1.4c8.4-3.4,16.4-7.8,23.8-13.1c0.5,0.8,0.8,1.6,1.5,2.2l55.5,54.8h70.9
	c5,11.6,16.4,19.7,29.7,19.7c17.8,0,32.3-14.5,32.3-32.3c0-17.8-14.5-32.3-32.3-32.3c-13.3,0-24.8,8.1-29.7,19.7h-60.5l-48.1-47.5
	c-0.2-0.2-0.5-0.3-0.7-0.5c13.1-13.9,23.5-30.7,29.8-49.4c2.6-7.9,4.4-16.6,5.3-26.4c0.3-3.4,2.6-7.7,5-12.3c1.5-2.8,3-5.6,4.2-8.4
	c8-18.7,12.2-38.3,12.3-58.5c0.1-10.5-0.8-20.6-2.5-30.5h55.2C724.6,381.1,736,389.2,749.4,389.2"/>
</svg>
