<?xml version="1.0" encoding="utf-8"?>
<!-- Generator: Adobe Illustrator 25.2.0, SVG Export Plug-In . SVG Version: 6.00 Build 0)  -->
<svg version="1.1" id="Layer_1" xmlns="http://www.w3.org/2000/svg" xmlns:xlink="http://www.w3.org/1999/xlink" x="0px" y="0px"
	 viewBox="0 0 100 125" style="enable-background:new 0 0 100 125;" xml:space="preserve">
<style type="text/css">
	.st0{fill:#684B3D;}
</style>
<path class="st0" d="M77.8,66.3c0-3.3-2.7-6-6-6l0,0c0,0,0-0.1,0-0.2c0-6.8-6-12.3-13.5-12.3c-3,0-5.9,0.9-8.4,2.6
	c-1.8-2.8-5.5-3.6-8.3-1.9c-1.2,0.8-2.1,1.9-2.5,3.3c-5.6-1.2-11.1,2.4-12.2,8c-1.2,5.6,2.4,11.1,8,12.2c0.7,0.1,1.4,0.2,2.2,0.2
	h34.7C75,72.4,77.7,69.8,77.8,66.3C77.8,66.4,77.8,66.4,77.8,66.3z"/>
<path class="st0" d="M87.2,24.2h-8.4c-1.8,0-3.2,1.4-3.2,3.2v16.4c0,1.8,1.4,3.2,3.2,3.2h8.4c1.8,0,3.2-1.4,3.2-3.2V27.4
	C90.4,25.6,89,24.2,87.2,24.2z M88.7,43.8c0,0.8-0.7,1.5-1.5,1.5h-8.4c-0.8,0-1.5-0.7-1.5-1.5v0V27.4c0-0.8,0.7-1.5,1.5-1.5l0,0h1.8
	c0,0,0,0.1,0,0.1c0,0.5,0.4,0.9,0.9,0.9h3.1c0.5,0,0.9-0.4,0.9-0.9c0,0,0-0.1,0-0.1h1.8c0.8,0,1.5,0.7,1.5,1.5c0,0,0,0,0,0V43.8z"/>
<path class="st0" d="M83.1,39.3c-1.1,0-2,0.9-2,2c0,1.1,0.9,2,2,2s2-0.9,2-2C85.1,40.2,84.2,39.3,83.1,39.3L83.1,39.3z M83.1,42.4
	c-0.6,0-1.1-0.5-1.1-1.1c0-0.6,0.5-1.1,1.1-1.1c0.6,0,1.1,0.5,1.1,1.1C84.2,41.9,83.7,42.4,83.1,42.4L83.1,42.4z"/>
<path class="st0" d="M43.7,93.9l1.8,1.8c3.7-3.7,9.8-3.7,13.5,0l1.8-1.8C56,89.2,48.4,89.2,43.7,93.9C43.7,93.9,43.7,93.9,43.7,93.9
	L43.7,93.9z"/>
<path class="st0" d="M39.8,90.1l1.8,1.8c5.8-5.8,15.3-5.9,21.1-0.1c0,0,0,0,0.1,0.1l1.8-1.8C57.8,83.2,46.7,83.2,39.8,90.1
	L39.8,90.1z"/>
<path class="st0" d="M47.5,97.7l0.9,0.9l0.9,0.9l2.9,2.9l2.9-2.9l0.9-0.9l0.9-0.9c-1.2-1.3-2.9-2-4.7-2
	C50.4,95.8,48.7,96.5,47.5,97.7z"/>
<path class="st0" d="M31,34.6c0-6.7-5.4-12.1-12.1-12.1S6.9,28,6.9,34.6c0,6.7,5.4,12.1,12.1,12.1S31,41.3,31,34.6L31,34.6z
	 M23.1,36.9c0-0.7,0.1-1.5,0.1-2.3c0-0.8,0-1.5-0.1-2.3c4.1,0.5,6.2,1.7,6.2,2.3S27.2,36.4,23.1,36.9L23.1,36.9z M18.9,45
	c-0.6,0-1.8-2.1-2.3-6.2c0.7,0,1.5,0.1,2.3,0.1c0.8,0,1.5,0,2.3-0.1C20.7,42.9,19.5,45,18.9,45z M18.9,37.1c-0.9,0-1.7,0-2.4-0.1
	c0-0.8-0.1-1.6-0.1-2.4s0-1.7,0.1-2.4c0.8,0,1.6-0.1,2.4-0.1s1.7,0,2.4,0.1c0,0.8,0.1,1.6,0.1,2.4s0,1.7-0.1,2.4
	C20.6,37.1,19.7,37.1,18.9,37.1z M8.6,34.6c0-0.6,2.1-1.8,6.2-2.3c0,0.7-0.1,1.5-0.1,2.3s0,1.5,0.1,2.3C10.7,36.4,8.6,35.2,8.6,34.6
	z M18.9,24.3c0.6,0,1.8,2.1,2.3,6.2c-0.7,0-1.5-0.1-2.3-0.1c-0.8,0-1.5,0-2.3,0.1C17.2,26.3,18.3,24.3,18.9,24.3z M29,32.1
	c-1.9-0.9-3.9-1.4-6-1.5c-0.2-2.1-0.7-4.1-1.5-6C25.1,25.5,28,28.4,29,32.1z M16.5,24.6c-0.9,1.9-1.4,3.9-1.5,6
	c-2.1,0.2-4.1,0.7-6,1.5C9.8,28.4,12.7,25.5,16.5,24.6z M8.9,37.1c1.9,0.9,3.9,1.4,6,1.5c0.2,2.1,0.7,4.1,1.5,6
	C12.7,43.7,9.8,40.8,8.9,37.1z M21.4,44.7c0.9-1.9,1.4-3.9,1.5-6c2.1-0.2,4.1-0.7,6-1.5C28,40.8,25.1,43.7,21.4,44.7z"/>
<path class="st0" d="M45.8,24.2L45.6,23c-4.3,0.8-8.5,2.3-12.2,4.5l0.6,1C37.6,26.4,41.6,25,45.8,24.2z"/>
<path class="st0" d="M70.9,27.5c-3.8-2.2-8-3.7-12.3-4.4l-0.2,1.2c4.2,0.7,8.2,2.2,11.9,4.3L70.9,27.5z"/>
<path class="st0" d="M14.6,60.2c0,4.4,0.8,8.7,2.3,12.9l1.1-0.4c-1.5-4-2.2-8.2-2.2-12.4H14.6z"/>
<path class="st0" d="M88.6,59.9v0.1c0,4.2-0.7,8.5-2.2,12.5l1.1,0.4c1.5-4.1,2.3-8.5,2.3-12.9v-0.1H88.6z"/>
<path class="st0" d="M24.4,83.5l-0.9,0.8c2.8,3.4,6.2,6.2,10,8.4l0.6-1C30.4,89.6,27.1,86.8,24.4,83.5z"/>
<path class="st0" d="M70.4,91.6l0.6,1c3.8-2.2,7.2-5.1,10-8.4l-0.9-0.8C77.4,86.7,74.1,89.5,70.4,91.6z"/>
</svg>
