<?xml version="1.0" encoding="utf-8"?>
<!-- Generator: Adobe Illustrator 25.2.0, SVG Export Plug-In . SVG Version: 6.00 Build 0)  -->
<svg version="1.1" id="Layer_1" xmlns="http://www.w3.org/2000/svg" xmlns:xlink="http://www.w3.org/1999/xlink" x="0px" y="0px"
	 viewBox="0 0 100 100" style="enable-background:new 0 0 100 100;" xml:space="preserve">
<style type="text/css">
	.st0{fill:#665B57;}
</style>
<g>
	<path class="st0" d="M77.1,92.4H20.9c-1,0-1.9-0.8-1.9-1.9V6c0-1,0.8-1.9,1.9-1.9h56.2c1,0,1.9,0.8,1.9,1.9v84.5
		C78.9,91.6,78.1,92.4,77.1,92.4z M22.7,88.7h52.5V7.9H22.7V88.7z"/>
</g>
<g>
	<path class="st0" d="M42.3,17.7H27.8c-1,0-1.9-0.8-1.9-1.9s0.8-1.9,1.9-1.9h14.5c1,0,1.9,0.8,1.9,1.9S43.3,17.7,42.3,17.7z"/>
</g>
<g>
	<path class="st0" d="M28.4,78c-0.5,0-1-0.2-1.3-0.5c-0.7-0.7-0.7-1.9,0-2.6l5.8-5.8c0.7-0.7,1.9-0.7,2.6,0c0.7,0.7,0.7,1.9,0,2.6
		l-5.8,5.8C29.3,77.8,28.8,78,28.4,78z"/>
</g>
<g>
	<path class="st0" d="M34.2,78c-0.5,0-1-0.2-1.3-0.5l-5.8-5.8c-0.7-0.7-0.7-1.9,0-2.6c0.7-0.7,1.9-0.7,2.6,0l5.8,5.8
		c0.7,0.7,0.7,1.9,0,2.6C35.2,77.8,34.7,78,34.2,78z"/>
</g>
<g>
	<path class="st0" d="M72.2,78.4H40.3c-1,0-1.9-0.8-1.9-1.9s0.8-1.9,1.9-1.9h31.9c1,0,1.9,0.8,1.9,1.9S73.2,78.4,72.2,78.4z"/>
</g>
<g>
	<path class="st0" d="M47.6,24.7H27.8c-1,0-1.9-0.8-1.9-1.9s0.8-1.9,1.9-1.9h19.8c1,0,1.9,0.8,1.9,1.9S48.6,24.7,47.6,24.7z"/>
</g>
<g>
	<path class="st0" d="M69.7,45.1H27.8c-1,0-1.9-0.8-1.9-1.9s0.8-1.9,1.9-1.9h41.9c1,0,1.9,0.8,1.9,1.9S70.7,45.1,69.7,45.1z"/>
</g>
<g>
	<path class="st0" d="M69.7,52.9H27.8c-1,0-1.9-0.8-1.9-1.9s0.8-1.9,1.9-1.9h41.9c1,0,1.9,0.8,1.9,1.9S70.7,52.9,69.7,52.9z"/>
</g>
<g>
	<path class="st0" d="M69.7,60.6H27.8c-1,0-1.9-0.8-1.9-1.9s0.8-1.9,1.9-1.9h41.9c1,0,1.9,0.8,1.9,1.9S70.7,60.6,69.7,60.6z"/>
</g>
<g>
	<path class="st0" d="M67.4,12.3c-2.7,0-4.8,2.1-4.8,4.8c0,1.5,0.7,2.8,1.7,3.7l-3.7,11.3l4-1.8l-0.9-2.2l2.2-0.9l-0.9-2.2l2.2-0.9
		l-0.9-2.4c0.4,0.1,0.8,0.2,1.3,0.2c2.7,0,4.8-2.1,4.8-4.8C72.2,14.5,70,12.3,67.4,12.3z M67.9,17.1c-0.9,0-1.5-0.7-1.5-1.5
		S67,14,67.9,14s1.5,0.7,1.5,1.5S68.7,17.1,67.9,17.1z"/>
	<path class="st0" d="M60.6,32.3c-0.1,0-0.1,0-0.2-0.1c-0.1-0.1-0.1-0.2-0.1-0.2l3.6-11.2c-1.1-1-1.7-2.3-1.7-3.7c0-2.8,2.3-5,5-5
		c2.8,0,5,2.3,5,5c0,2.8-2.3,5-5,5c-0.3,0-0.6,0-0.9-0.1l0.8,2c0,0.1,0,0.2-0.1,0.3l-1.9,0.8l0.8,1.9c0.1,0.1,0,0.3-0.1,0.3L64,28.3
		l0.8,1.9c0,0.1,0,0.3-0.1,0.3L60.6,32.3C60.7,32.3,60.7,32.3,60.6,32.3z M67.4,12.5c-2.5,0-4.6,2-4.6,4.6c0,1.3,0.6,2.6,1.6,3.5
		c0.1,0.1,0.1,0.2,0.1,0.3L61,31.7l3.3-1.5l-0.8-1.9c-0.1-0.1,0-0.3,0.1-0.3l1.9-0.8l-0.8-1.9c0-0.1,0-0.1,0-0.2
		c0-0.1,0.1-0.1,0.1-0.1l2-0.8l-0.9-2.2c0-0.1,0-0.2,0-0.2c0.1-0.1,0.2-0.1,0.2-0.1c0.5,0.1,0.8,0.2,1.2,0.2c2.5,0,4.6-2.1,4.6-4.6
		S69.9,12.5,67.4,12.5z M67.9,17.3c-1,0-1.8-0.8-1.8-1.8s0.8-1.8,1.8-1.8s1.8,0.8,1.8,1.8S68.8,17.3,67.9,17.3z M67.9,14.2
		c-0.7,0-1.3,0.6-1.3,1.3c0,0.7,0.6,1.3,1.3,1.3c0.7,0,1.3-0.6,1.3-1.3C69.2,14.8,68.6,14.2,67.9,14.2z"/>
</g>
</svg>
