<?xml version="1.0" encoding="UTF-8"?>
<svg id="Layer_2" data-name="Layer 2" xmlns="http://www.w3.org/2000/svg" viewBox="0 0 263.92 87">
  <defs>
    <style>
      .cls-1 {
        fill: #4167b0;
      }

      .cls-2 {
        fill: #665b57;
      }

      .cls-3 {
        fill: #8dd1ff;
      }

      .cls-4 {
        fill: #2376bc;
      }

      .cls-5 {
        fill: #684b3d;
      }

      .cls-6 {
        fill: #a87763;
      }
    </style>
  </defs>
  <g id="Layer_1-2" data-name="Layer 1">
    <path class="cls-2" d="M94.57,39.83c.27-.12.39-.44.27-.71-.04-.09-.11-.17-.19-.23l-21.14-14.49c-.19-.11-.43-.11-.62,0-10.27,5.31-15.52,7.89-17.39,8.8-.38.19.08,1.32.42,1.57l22.24,14.05"/>
    <path class="cls-6" d="M61.51,56.41c10.31-5.05,21.27-10.51,27.15-13.68,1.81-1,4-4.86,2.56-6.08-2.24-1.93,6.85,4.32,7.92,5.86,2.43,3.49,4.15,9.21-.28,14.47-1.71,1.95-3.81,3.51-6.18,4.56-2.61,1.22-7.11,3.36-12.46,5.89"/>
    <path class="cls-5" d="M61.51,56.41c-10.45,5.12-20.24,9.83-23.39,11.33-.71.31-1.35.77-1.88,1.34-1.29,1.06-2.03,2.65-2,4.32-.12,3-2.11,14.25,3.94,13.57,1.13-.13,25.56-11.73,42-19.54l-18.59-11.08"/>
    <path class="cls-4" d="M7.21,47.17c-.27.12-.39.44-.27.71.04.09.11.17.19.23l21.16,14.49c.19.11.43.11.62,0,10.27-5.31,15.52-7.89,17.39-8.8.38-.19-.08-1.32-.42-1.57l-22.24-14.05"/>
    <path class="cls-1" d="M40.29,30.59c-10.31,5.05-21.27,10.51-27.15,13.68-1.81,1-4,4.86-2.56,6.08,2.24,1.93-6-3.35-7.92-5.86-3-3.91-4.15-9.21.28-14.47,1.71-1.95,3.81-3.51,6.18-4.56,2.61-1.22,7.11-3.36,12.45-5.89"/>
    <path class="cls-3" d="M40.29,30.59c10.45-5.12,20.24-9.83,23.39-11.33.71-.31,1.35-.77,1.88-1.34,1.29-1.06,2.03-2.65,2-4.32.12-3,2.12-14.25-3.93-13.57-1.13.13-25.56,11.73-42,19.54l18.6,11.08"/>
    <path d="M111.57,29.74h12.28c1.71-.1,3.41.18,5,.81,1.09.53,2.04,1.33,2.74,2.32.75,1.07,1.14,2.36,1.09,3.67,0,2.92-1.59,4.86-4.75,5.84,1.62.29,3.08,1.16,4.11,2.45.88,1.15,1.37,2.55,1.37,4,.01,1.94-.8,3.8-2.24,5.11-1.49,1.44-3.92,2.16-7.28,2.16h-12.32v-26.36ZM117.73,34.4v5.77h4.67c1.71,0,2.79-.34,3.24-1,.4-.57.63-1.24.66-1.94.02-.62-.18-1.23-.55-1.73-.29-.43-.71-.75-1.2-.91-.85-.15-1.72-.21-2.59-.18h-4.23ZM117.73,44.86v6.35h4.74c1.21.11,2.42-.18,3.43-.85.68-.59,1.05-1.47,1-2.37-.01-.84-.37-1.64-1-2.2-.91-.71-2.05-1.04-3.2-.93h-4.97Z"/>
    <path d="M142.68,56.1h-5.58v-19.5h5.27v3.63c.81-2.7,2.21-4.06,4.21-4.06.28,0,.63,0,1,.06v5.68c-.94-.05-1.88.14-2.73.54-.73.46-1.29,1.14-1.6,1.94-.46,1.2-.66,2.49-.61,3.77l.04,7.94Z"/>
    <path d="M158.9,36.19c2.66-.15,5.24.93,7,2.92,1.7,2.05,2.58,4.64,2.49,7.3.09,2.65-.84,5.22-2.59,7.21-1.76,1.93-4.28,2.99-6.89,2.88-2.54.1-4.99-.94-6.67-2.85-1.71-2.05-2.61-4.67-2.5-7.34-.05-1.83.34-3.64,1.13-5.28.72-1.41,1.79-2.62,3.1-3.5,1.47-.93,3.19-1.4,4.93-1.34ZM159.06,39.96c-.99-.05-1.93.43-2.47,1.26-.55.85-.82,2.52-.82,5-.12,1.7.15,3.41.79,5,.44.96,1.41,1.56,2.46,1.51.96,0,1.85-.48,2.37-1.28.6-.86.9-2.49.9-4.9,0-2.56-.26-4.3-.8-5.21-.49-.87-1.43-1.39-2.43-1.34v-.04Z"/>
    <path d="M197.45,36.6l-5.88,19.5h-5.07l-3.09-12.55-3.08,12.55h-4.76l-6.05-19.5h6l3.18,11.91,3-11.91h5.2l2.86,12,3.31-12h4.38Z"/>
    <path d="M217.1,56.1h-5.75v-11c.03-.91-.02-1.82-.15-2.72-.11-.49-.38-.93-.76-1.25-.42-.35-.95-.53-1.5-.51-2,0-3,1.5-3,4.48v11h-5.76v-19.5h5.35v3.3c.59-1.22,1.5-2.26,2.63-3,.86-.45,1.83-.69,2.8-.68,1.63-.08,3.22.46,4.47,1.5,1.14,1,1.7,3,1.7,5.88l-.03,12.5Z"/>
    <path d="M232.01,29.74h12.28c1.71-.1,3.41.18,5,.81,1.09.53,2.04,1.33,2.74,2.32.74,1.08,1.12,2.36,1.08,3.67,0,2.92-1.58,4.86-4.75,5.84,1.63.29,3.09,1.16,4.12,2.45.88,1.15,1.37,2.55,1.37,4,.01,1.94-.8,3.8-2.24,5.11-1.5,1.44-3.92,2.16-7.28,2.16h-12.32v-26.36ZM238.17,34.4v5.77h4.67c1.71,0,2.79-.34,3.23-1,.41-.57.64-1.24.67-1.94.02-.62-.18-1.23-.55-1.73-.29-.43-.72-.75-1.21-.91-.85-.15-1.72-.22-2.58-.18h-4.23ZM238.17,44.86v6.35h4.74c1.21.11,2.42-.18,3.43-.85,1.26-1.2,1.31-3.19.12-4.45-.04-.04-.08-.08-.12-.12-.91-.71-2.05-1.04-3.2-.93h-4.97Z"/>
    <path d="M263.92,29.74v26.36h-6.15v-26.36h6.15Z"/>
    <path d="M111.57,29.74h12.28c1.71-.1,3.41.18,5,.81,1.09.53,2.04,1.33,2.74,2.32.75,1.07,1.14,2.36,1.09,3.67,0,2.92-1.59,4.86-4.75,5.84,1.62.29,3.08,1.16,4.11,2.45.88,1.15,1.37,2.55,1.37,4,.01,1.94-.8,3.8-2.24,5.11-1.49,1.44-3.92,2.16-7.28,2.16h-12.32v-26.36ZM117.73,34.4v5.77h4.67c1.71,0,2.79-.34,3.24-1,.4-.57.63-1.24.66-1.94.02-.62-.18-1.23-.55-1.73-.29-.43-.71-.75-1.2-.91-.85-.15-1.72-.21-2.59-.18h-4.23ZM117.73,44.86v6.35h4.74c1.21.11,2.42-.18,3.43-.85.68-.59,1.05-1.47,1-2.37-.01-.84-.37-1.64-1-2.2-.91-.71-2.05-1.04-3.2-.93h-4.97Z"/>
    <path d="M142.68,56.1h-5.58v-19.5h5.27v3.63c.81-2.7,2.21-4.06,4.21-4.06.28,0,.63,0,1,.06v5.68c-.94-.05-1.88.14-2.73.54-.73.46-1.29,1.14-1.6,1.94-.46,1.2-.66,2.49-.61,3.77l.04,7.94Z"/>
    <path d="M158.9,36.19c2.66-.15,5.24.93,7,2.92,1.7,2.04,2.59,4.64,2.5,7.3.08,2.65-.85,5.23-2.6,7.21-1.76,1.93-4.28,2.99-6.89,2.88-2.54.1-4.99-.94-6.67-2.85-1.71-2.05-2.61-4.67-2.5-7.34-.05-1.83.34-3.64,1.13-5.28.72-1.41,1.79-2.62,3.1-3.5,1.47-.93,3.19-1.4,4.93-1.34ZM159.06,39.96c-.99-.05-1.93.43-2.47,1.26-.55.85-.82,2.52-.82,5-.12,1.7.15,3.41.79,5,.44.96,1.41,1.56,2.46,1.51.96,0,1.85-.47,2.37-1.28.6-.86.9-2.49.9-4.9,0-2.56-.26-4.3-.8-5.21-.49-.87-1.43-1.39-2.43-1.34v-.04Z"/>
    <path d="M197.45,36.6l-5.88,19.5h-5.07l-3.09-12.55-3.08,12.55h-4.76l-6.05-19.5h6l3.19,11.91,3-11.91h5.2l2.86,12,3.31-12h4.37Z"/>
    <path d="M217.11,56.1h-5.76v-11c.03-.91-.02-1.82-.15-2.72-.11-.49-.38-.93-.76-1.25-.42-.35-.95-.53-1.5-.51-2,0-3,1.5-3,4.48v11h-5.76v-19.5h5.35v3.3c.59-1.22,1.5-2.26,2.63-3,.86-.45,1.83-.69,2.8-.68,1.63-.08,3.23.46,4.48,1.5,1.13,1,1.7,2.96,1.7,5.88l-.03,12.5Z"/>
    <path d="M232.01,29.74h12.28c1.71-.1,3.41.18,5,.81,1.09.53,2.04,1.33,2.74,2.32.74,1.08,1.12,2.36,1.08,3.67,0,2.92-1.58,4.86-4.75,5.84,1.63.29,3.09,1.16,4.12,2.45.88,1.15,1.37,2.55,1.37,4,.01,1.94-.8,3.8-2.24,5.11-1.5,1.44-3.92,2.16-7.28,2.16h-12.32v-26.36ZM238.17,34.4v5.77h4.67c1.71,0,2.79-.34,3.23-1,.41-.57.64-1.24.67-1.94.02-.62-.18-1.23-.55-1.73-.29-.43-.72-.75-1.21-.91-.85-.15-1.72-.22-2.58-.18h-4.23ZM238.17,44.86v6.35h4.74c1.21.11,2.42-.18,3.43-.85.68-.59,1.05-1.47,1-2.37-.01-.84-.37-1.64-1-2.2-.91-.71-2.05-1.04-3.2-.93h-4.97Z"/>
    <path d="M263.92,29.74v26.36h-6.15v-26.36h6.15Z"/>
    <path d="M112.14,64.56h3.71c2.69-.18,5.01,1.86,5.19,4.55.01.2.01.41,0,.61.19,2.75-1.89,5.14-4.64,5.33-.19.01-.38.02-.57,0h-3.69v-10.5ZM113,74.31h2.7c3,0,4.42-1.95,4.42-4.55.18-2.28-1.53-4.27-3.81-4.45-.2-.02-.41-.02-.61,0h-2.7v9Z"/>
    <path d="M123.39,71.4c0,1.93,1.06,3.13,2.59,3.13,1,.1,1.94-.48,2.31-1.41h.81c-.41,1.37-1.73,2.25-3.15,2.12-2.43,0-3.37-2-3.37-3.87,0-2.15,1.13-4,3.47-4,1.75-.04,3.2,1.34,3.25,3.09,0,.11,0,.21,0,.32v.61h-5.9ZM128.46,70.74c.13-1.33-.84-2.52-2.17-2.65-.09,0-.18-.01-.27-.01-1.65,0-2.4,1.09-2.58,2.66h5.02Z"/>
    <path d="M130.82,67.56c1.3,3.44,2.19,5.77,2.5,6.73h0c.18-.55,1.08-2.79,2.63-6.73h.84l-3,7.5h-1l-2.84-7.5h.87Z"/>
    <path d="M148.06,69.73c0,2.87-1.63,5.48-5.09,5.48-3.15,0-5-2.39-5-5.4s1.77-5.4,5.1-5.4c3.09,0,4.99,2.26,4.99,5.32ZM138.91,69.73c0,2.42,1.43,4.7,4.11,4.7,2.9,0,4.11-2.22,4.11-4.71s-1.37-4.59-4.08-4.59c-2.87.03-4.14,2.26-4.14,4.63v-.03Z"/>
    <path d="M150.98,74v4.11h-.8v-10.5h.79v1.35c.56-1.01,1.66-1.6,2.81-1.53,1.89,0,3.2,1.49,3.2,3.73,0,2.7-1.53,4.13-3.47,4.13-1.02.1-2.01-.41-2.53-1.29ZM156.14,71.19c0-1.73-.89-3-2.48-3-1.93,0-2.73,1.14-2.73,3.18s.62,3.25,2.62,3.25c1.67-.09,2.59-1.41,2.59-3.48v.05Z"/>
    <path d="M158.93,73c.27,1.01,1.23,1.67,2.27,1.56,1.42,0,2-.62,2-1.46s-.38-1.27-2.18-1.67c-2.06-.47-2.57-1.05-2.57-2s.83-2,2.64-2c1.35-.17,2.59.76,2.8,2.1h-.8c-.22-.9-1.08-1.5-2-1.41-1.39,0-1.79.64-1.79,1.24s.38,1,2,1.4c2.26.51,2.82,1.2,2.82,2.32,0,1.37-1.19,2.21-2.87,2.21s-2.84-.9-3.07-2.25l.75-.04Z"/>
    <path d="M170.2,67.56c1.19,3.87,1.88,6.09,2,6.75h0c.13-.6.93-3,2.17-6.75h.87c1.48,4.63,1.93,6,2.08,6.55h0c.23-.82.59-1.94,2.07-6.55h.84l-2.52,7.5h-.88c-.87-2.66-1.91-5.91-2.07-6.6h0c-.16.73-1.07,3.42-2.11,6.6h-1l-2.35-7.5h.9Z"/>
    <path d="M181.82,64h.8v1.46h-.8v-1.46ZM181.82,67.56h.8v7.5h-.8v-7.5Z"/>
    <path d="M183.96,67.56h1.49v-2.34h.8v2.34h1.9v.7h-1.9v4.88c0,.84.19,1.32,1,1.32.28,0,.56-.03.83-.09v.63c-.32.1-.66.15-1,.14-1,0-1.6-.49-1.6-1.69v-5.22h-1.49l-.03-.67Z"/>
    <path d="M190.4,64v4.82c.53-.95,1.56-1.51,2.64-1.44,1.14,0,2.7.54,2.7,2.91v4.77h-.8v-4.62c0-1.48-.72-2.32-2-2.32-1.59,0-2.5.91-2.5,2.76v4.18h-.87v-11.06h.83Z"/>
    <path d="M208.01,73.63c0,.48.03.96.11,1.43h-.77c-.09-.38-.14-.77-.14-1.16-.52.94-1.56,1.47-2.62,1.34-1.86,0-2.66-1.13-2.66-2.25,0-1.65,1.36-2.4,3.76-2.4h1.52v-.76c0-.75-.24-1.76-2.06-1.76-1.62,0-1.86.8-2,1.41h-.8c.09-.82.64-2.1,2.84-2.1,1.83,0,2.85.72,2.85,2.37l-.03,3.88ZM207.23,71.23h-1.57c-1.78,0-2.88.44-2.88,1.73.01.9.76,1.62,1.66,1.6.06,0,.12,0,.18-.01,2.29,0,2.61-1.43,2.61-3.05v-.27Z"/>
    <path d="M224.75,70.23c0-2.06,0-4,.07-5.07h0c-.45,1.41-2.72,6.59-4.14,9.9h-.85c-1.07-2.56-3.42-8.32-3.93-9.92h0c.08,1.2.12,3.65.12,5.45v4.47h-.87v-10.5h1.3c1.53,3.6,3.47,8.31,3.88,9.49h0c.25-.76,2.49-6,4.06-9.49h1.28v10.5h-.87l-.05-4.83Z"/>
    <path d="M228.28,64h.79v1.46h-.79v-1.46ZM228.28,67.56h.79v7.5h-.79v-7.5Z"/>
    <path d="M231.51,73c.26,1.01,1.23,1.68,2.27,1.56,1.42,0,2-.62,2-1.46s-.39-1.27-2.18-1.67c-2.06-.47-2.57-1.05-2.57-2s.83-2,2.63-2c1.35-.17,2.59.76,2.8,2.1h-.8c-.22-.9-1.07-1.51-2-1.41-1.39,0-1.79.64-1.79,1.24s.39,1,2,1.4c2.25.51,2.81,1.2,2.81,2.32,0,1.37-1.18,2.21-2.86,2.21s-2.85-.9-3.07-2.25l.76-.04Z"/>
    <path d="M238.67,73c.26,1.01,1.23,1.68,2.27,1.56,1.42,0,2-.62,2-1.46s-.39-1.27-2.18-1.67c-2.06-.47-2.57-1.05-2.57-2s.83-2,2.63-2c1.35-.17,2.59.76,2.8,2.1h-.8c-.22-.9-1.07-1.51-2-1.41-1.39,0-1.79.64-1.79,1.24s.39,1,2,1.4c2.25.51,2.81,1.2,2.81,2.32,0,1.37-1.18,2.21-2.86,2.21s-2.85-.9-3.07-2.25l.76-.04Z"/>
    <path d="M245.57,64h.8v1.46h-.8v-1.46ZM245.57,67.56h.8v7.5h-.8v-7.5Z"/>
    <path d="M255.32,71.29c0,2.09-1.23,3.95-3.61,3.95-2.16,0-3.5-1.67-3.5-3.93s1.26-3.93,3.58-3.93c2.13,0,3.53,1.56,3.53,3.91ZM249.05,71.29c0,1.78,1,3.22,2.72,3.22s2.71-1.33,2.71-3.22-1-3.23-2.74-3.23-2.69,1.45-2.69,3.25v-.02Z"/>
    <path d="M257.12,69.45v-1.89h.78c.02.47.02.95,0,1.42.44-1.06,1.52-1.71,2.66-1.6,1.38-.11,2.58.91,2.69,2.29.01.18,0,.35-.01.53v4.86h-.8v-4.74c0-1.34-.59-2.2-2-2.2-1.9,0-2.56,1.48-2.56,3.11v3.83h-.8l.04-5.61Z"/>
  </g>
</svg>