<?xml version="1.0" encoding="UTF-8"?>
<svg id="Layer_2" data-name="Layer 2" xmlns="http://www.w3.org/2000/svg" viewBox="0 0 93.84 96">
  <defs>
    <style>
      .cls-1 {
        fill-rule: evenodd;
      }
    </style>
  </defs>
  <g id="Layer_1-2" data-name="Layer 1">
    <path class="cls-1" d="M79.92,87h-8.63l-6.72-5.76c-.38-.32-.93-.32-1.3,0l-6.72,5.76h-8.63v-8c0-.55-.45-1-1-1s-1,.45-1,1v8h-8.63l-6.72-5.76c-.38-.32-.93-.32-1.3,0l-6.72,5.76h-8.63v-8c0-.55-.45-1-1-1s-1,.45-1,1v16c0,.55.45,1,1,1s1-.45,1-1v-6h8.63l6.72,5.76c.38.32.93.32,1.3,0l6.72-5.76h8.63v6c0,.55.45,1,1,1s1-.45,1-1v-6h8.63l6.72,5.76c.38.32.93.32,1.3,0l6.72-5.76h8.63v6c0,.55.45,1,1,1s1-.45,1-1v-16c0-.55-.45-1-1-1s-1,.45-1,1v8ZM29.92,83.32l5.46,4.68-5.46,4.68-5.46-4.68,5.46-4.68ZM63.92,83.32l5.46,4.68-5.46,4.68-5.46-4.68,5.46-4.68ZM22.5,66.88c-1.9,2.37-4.77,3.93-8,4.1l.81-.43c.49-.26.67-.86.41-1.35s-.86-.67-1.35-.41l-4.63,2.46,2.46,4.63c.26.49.86.67,1.35.41.49-.26.67-.86.41-1.35l-1.05-1.98c.33.03.67.04,1.01.04,4.26,0,8.05-2.05,10.42-5.23,1.3.14,2.59-.6,3.1-1.88.61-1.54-.14-3.29-1.68-3.89-1.54-.61-3.29.14-3.89,1.68-.45,1.13-.16,2.38.64,3.2h0ZM69.5,67.77c2.37,3.17,6.16,5.23,10.42,5.23.34,0,.68-.01,1.01-.04l-1.05,1.98c-.26.49-.07,1.09.41,1.35.49.26,1.09.07,1.35-.41l2.46-4.63-4.63-2.46c-.49-.26-1.09-.07-1.35.41-.26.49-.07,1.09.41,1.35l.81.43c-3.23-.17-6.1-1.73-8-4.1.8-.82,1.09-2.07.64-3.2-.61-1.54-2.36-2.29-3.89-1.68s-2.29,2.36-1.68,3.89c.51,1.28,1.8,2.01,3.1,1.88h0ZM49.65,48.06c-.03-.47-.39-.86-.85-.93-1.25-.18-2.52-.18-3.77,0-.47.07-.82.45-.85.93l-.18,2.7c-.54.17-1.06.39-1.56.65l-2.03-1.78c-.36-.31-.88-.33-1.26-.05-1.01.75-1.91,1.65-2.66,2.66-.28.38-.26.9.05,1.26l1.78,2.03c-.26.5-.48,1.02-.65,1.56l-2.7.18c-.47.03-.86.39-.93.85-.18,1.25-.18,2.52,0,3.77.07.47.45.82.93.85l2.7.18c.17.54.39,1.06.65,1.56l-1.78,2.03c-.31.36-.33.88-.05,1.26.75,1.01,1.65,1.91,2.66,2.66.38.28.9.26,1.26-.05l2.03-1.78c.5.26,1.02.48,1.56.65l.18,2.7c.03.47.39.86.85.93,1.25.18,2.52.18,3.77,0,.47-.07.82-.45.85-.93l.18-2.7c.54-.17,1.06-.39,1.56-.65l2.03,1.78c.36.31.88.33,1.26.05,1.01-.75,1.91-1.65,2.66-2.66.28-.38.26-.9-.05-1.26l-1.78-2.03c.26-.5.48-1.02.65-1.56l2.7-.18c.47-.03.86-.39.93-.85.18-1.25.18-2.52,0-3.77-.07-.47-.45-.82-.93-.85l-2.7-.18c-.17-.54-.39-1.06-.65-1.56l1.78-2.03c.31-.36.33-.88.05-1.26-.75-1.01-1.65-1.91-2.66-2.66-.38-.28-.9-.26-1.26.05l-2.03,1.78c-.5-.26-1.02-.48-1.56-.65,0,0-.18-2.7-.18-2.7ZM47.71,49.03l.17,2.57c.03.44.34.81.77.91.82.19,1.61.52,2.33.97.38.23.86.2,1.19-.1l1.94-1.7c.4.35.78.72,1.12,1.12l-1.7,1.94c-.29.33-.33.81-.1,1.19.45.72.78,1.51.97,2.33.1.43.47.74.91.77l2.57.17c.04.53.04,1.06,0,1.59l-2.57.17c-.44.03-.81.34-.91.77-.19.82-.52,1.61-.97,2.33-.23.38-.2.86.1,1.19l1.7,1.94c-.35.4-.72.78-1.12,1.12l-1.94-1.7c-.33-.29-.81-.33-1.19-.1-.72.45-1.51.78-2.33.97-.43.1-.74.47-.77.91l-.17,2.57c-.53.04-1.06.04-1.59,0l-.17-2.57c-.03-.44-.34-.81-.77-.91-.82-.19-1.61-.52-2.33-.97-.38-.23-.86-.2-1.19.1l-1.94,1.7c-.4-.35-.78-.72-1.12-1.12l1.7-1.94c.29-.33.33-.81.1-1.19-.45-.72-.78-1.51-.97-2.33-.1-.43-.47-.74-.91-.77l-2.57-.17c-.04-.53-.04-1.06,0-1.59l2.57-.17c.44-.03.81-.34.91-.77.19-.82.52-1.61.97-2.33.23-.38.2-.86-.1-1.19l-1.69-1.94c.35-.4.72-.78,1.12-1.12l1.94,1.7c.33.29.81.33,1.19.1.72-.45,1.51-.78,2.33-.97.43-.1.74-.47.77-.91l.17-2.57c.53-.04,1.06-.04,1.59,0h0ZM3.2,52.65c-1.44,2.09-2.28,4.62-2.28,7.35,0,1.82.38,3.56,1.05,5.14-.77,1.06-.77,2.54.08,3.62,1.03,1.3,2.92,1.52,4.21.48,1.3-1.03,1.52-2.92.48-4.21-.75-.95-1.98-1.32-3.09-1.04-.48-1.24-.75-2.58-.75-3.99,0-1.8.43-3.5,1.2-5l-.03.93c-.02.55.41,1.02.96,1.04.55.02,1.02-.41,1.04-.96l.18-5.24-5.24-.18c-.55-.02-1.02.41-1.04.96-.02.55.41,1.02.96,1.04l2.23.07ZM89.72,55c.77,1.5,1.2,3.2,1.2,5,0,1.41-.27,2.75-.75,3.99-1.11-.28-2.34.09-3.09,1.04-1.03,1.3-.81,3.18.48,4.21,1.3,1.03,3.19.81,4.21-.48.85-1.08.85-2.56.08-3.62.68-1.58,1.06-3.32,1.06-5.14,0-2.73-.84-5.26-2.28-7.35l2.24-.08c.55-.02.98-.48.96-1.04-.02-.55-.48-.98-1.04-.96l-5.24.18.18,5.24c.02.55.48.98,1.04.96.55-.02.98-.48.96-1.04l-.04-.93ZM90.04,66.1c-.43-.34-1.05-.26-1.39.17-.34.43-.27,1.06.16,1.41.43.34,1.06.27,1.41-.16.34-.43.27-1.05-.15-1.4,0,0-.01-.01-.02-.02h0ZM3.62,67.52c-.34-.43-.27-1.06.16-1.41.43-.34,1.06-.27,1.4.16.34.43.27,1.06-.16,1.41-.43.34-1.06.27-1.41-.16ZM25.58,65.16c-.2.51-.79.77-1.3.56-.51-.2-.77-.79-.56-1.3.2-.51.79-.77,1.3-.56s.77.79.56,1.3ZM69.18,63.79h0c.4,0,.77.23.93.62h0c.2.52-.05,1.1-.56,1.3s-1.09-.05-1.3-.56c-.2-.51.05-1.09.56-1.3.12-.05.24-.07.36-.07h0ZM13.92,55c-2.76,0-5,2.24-5,5s2.24,5,5,5,5-2.24,5-5-2.24-5-5-5ZM79.92,55c-2.76,0-5,2.24-5,5s2.24,5,5,5,5-2.24,5-5-2.24-5-5-5ZM46.92,56.6c-1.88,0-3.4,1.52-3.4,3.4s1.52,3.4,3.4,3.4,3.4-1.52,3.4-3.4-1.52-3.4-3.4-3.4ZM79.92,57c1.66,0,3,1.34,3,3s-1.34,3-3,3-3-1.34-3-3,1.34-3,3-3ZM13.92,57c1.66,0,3,1.34,3,3s-1.34,3-3,3-3-1.34-3-3,1.34-3,3-3ZM46.92,58.6c.77,0,1.4.63,1.4,1.4s-.63,1.4-1.4,1.4-1.4-.63-1.4-1.4.63-1.4,1.4-1.4ZM15.59,49.13c3.16.48,5.88,2.31,7.55,4.88l-.77-.48c-.47-.29-1.09-.15-1.38.32s-.15,1.09.32,1.38l4.45,2.78,2.78-4.44c.29-.47.15-1.09-.32-1.38-.47-.29-1.09-.15-1.38.32l-1.19,1.9c-1.89-3.94-5.7-6.78-10.21-7.31-.54-1.2-1.82-1.94-3.18-1.74l-.41.06.41-.06c-1.64.24-2.77,1.77-2.53,3.4s1.77,2.77,3.4,2.53c1.21-.18,2.14-1.05,2.45-2.16h0ZM78.4,47.09c-4.52.53-8.32,3.37-10.21,7.31l-1.19-1.9c-.29-.47-.91-.61-1.38-.32s-.61.91-.32,1.38l2.78,4.45,4.45-2.78c.47-.29.61-.91.32-1.38s-.91-.61-1.38-.32l-.77.48c1.68-2.57,4.39-4.39,7.55-4.88.31,1.11,1.25,1.98,2.45,2.16,1.64.24,3.16-.89,3.4-2.53.24-1.64-.89-3.16-2.53-3.4-1.36-.2-2.64.55-3.18,1.74h0ZM12.56,47.32l.4-.06-.4.06c.55-.08,1.05.3,1.13.84.08.55-.3,1.05-.84,1.14-.55.08-1.05-.3-1.13-.84-.08-.55.3-1.05.84-1.14ZM80.99,49.3c-.55-.08-.93-.59-.84-1.14.08-.55.59-.93,1.13-.84.55.08.93.59.84,1.14-.08.55-.59.93-1.13.84ZM36.92,9.59l-14,14v-10.59c0-.27-.11-.52-.29-.71l-6-6c-.19-.19-.44-.29-.71-.29H3.92c-.55,0-1,.45-1,1v25c0,.55.45,1,1,1h8v9c0,.55.45,1,1,1s1-.45,1-1v-9h8c.55,0,1-.45,1-1v-5.59l14-14v13.59c0,.55.45,1,1,1h8v17c0,.55.45,1,1,1s1-.45,1-1v-17h8c.55,0,1-.45,1-1v-13.59l14,14v5.59c0,.55.45,1,1,1h8v9c0,.55.45,1,1,1s1-.45,1-1v-9h8c.55,0,1-.45,1-1V13c0-.27-.11-.52-.29-.71l-6-6c-.19-.19-.44-.29-.71-.29h-12c-.55,0-1,.45-1,1v16.59l-14-14v-2.59c0-.27-.11-.52-.29-.71L50.63.29c-.19-.19-.44-.29-.71-.29h-12c-.55,0-1,.45-1,1v8.59ZM82.92,8h-10v23h16V14h-5c-.55,0-1-.45-1-1v-5ZM14.92,8H4.92v23h16V14h-5c-.55,0-1-.45-1-1v-5ZM8.92,28h8c.55,0,1-.45,1-1s-.45-1-1-1h-8c-.55,0-1,.45-1,1s.45,1,1,1ZM76.92,28h8c.55,0,1-.45,1-1s-.45-1-1-1h-8c-.55,0-1,.45-1,1s.45,1,1,1ZM48.92,2h-10v23h16V8h-5c-.55,0-1-.45-1-1V2ZM8.92,23h8c.55,0,1-.45,1-1s-.45-1-1-1h-8c-.55,0-1,.45-1,1s.45,1,1,1ZM76.92,23h8c.55,0,1-.45,1-1s-.45-1-1-1h-8c-.55,0-1,.45-1,1s.45,1,1,1ZM42.92,22h8c.55,0,1-.45,1-1s-.45-1-1-1h-8c-.55,0-1,.45-1,1s.45,1,1,1ZM76.92,18h8c.55,0,1-.45,1-1s-.45-1-1-1h-8c-.55,0-1,.45-1,1s.45,1,1,1ZM8.92,18h8c.55,0,1-.45,1-1s-.45-1-1-1h-8c-.55,0-1,.45-1,1s.45,1,1,1ZM42.92,17h8c.55,0,1-.45,1-1s-.45-1-1-1h-8c-.55,0-1,.45-1,1s.45,1,1,1ZM42.92,12h8c.55,0,1-.45,1-1s-.45-1-1-1h-8c-.55,0-1,.45-1,1s.45,1,1,1ZM19.51,12l-2.59-2.59v2.59h2.59ZM84.92,12h2.59l-2.59-2.59v2.59ZM53.51,6l-2.59-2.59v2.59h2.59Z"/>
  </g>
</svg>